# Created by Kenney (www.kenney.nl)

mtllib 8Ball.mtl

v 4 13 -3
v 4 -7 -3
v 4 13 3
v 4 -7 3
v 1 13 -3
v 1 13 3
v 1 -7 3
v 1 -7 -3
v 4 12 -3
v 4 12 3
v 3 13 -3
v 3 13 3
v 3 12 3
v 3 12 -3
v 6 12 -3
v 6 -6 -3
v 6 12 3
v 6 -6 3
v 4 -6 3
v 4 -6 -3
v 1 12 -3
v 1 8 -3
v 1 12 3
v 1 8 3
v 0 12 -3
v 0 12 3
v 0 8 3
v 0 8 -3
v 0 11 -3
v 0 11 3
v -4 12 -3
v -4 12 3
v -4 11 3
v -4 11 -3
v 7 11 -3
v 7 -5 -3
v 7 11 3
v 7 -5 3
v 6 11 -3
v 6 11 3
v 6 -5 3
v 6 -5 -3
v 0 9 -3
v 0 9 3
v -3 11 -3
v -3 11 3
v -3 9 3
v -3 9 -3
v -3 10 -3
v -3 10 3
v -6 11 -3
v -6 11 3
v -6 10 3
v -6 10 -3
v 8 10 -3
v 8 -5 -3
v 8 10 3
v 8 -5 3
v 7 10 -3
v 7 10 3
v -5 9 3
v -5 10 3
v -5 10 -3
v -5 9 -3
v -7 10 -3
v -7 10 3
v -7 9 3
v -7 9 -3
v 9 9 -3
v 9 -4 -3
v 9 9 3
v 9 -4 3
v 8 9 -3
v 8 9 3
v 8 -4 3
v 8 -4 -3
v 0 4 3
v -1 4 3
v -1 9 3
v -1 8 3
v -5 8 3
v -6 8 3
v -6 9 3
v -6 9 -3
v -6 8 -3
v -8 9 -3
v -8 9 3
v -8 8 3
v -8 8 -3
v 10 8 -3
v 10 -3 -3
v 10 8 3
v 10 -3 3
v 9 8 -3
v 9 8 3
v 9 -3 3
v 9 -3 -3
v 1 5 3
v 0 5 3
v -1 8 -3
v -1 3 -3
v -1 3 3
v -2 8 -3
v -2 8 3
v -2 3 3
v -2 3 -3
v -2 7 -3
v -2 7 3
v -4 8 -3
v -4 8 3
v -4 7 3
v -4 7 -3
v -4 3 3
v -6 3 3
v -6 6 3
v -7 6 3
v -7 8 3
v -7 8 -3
v -7 -5 -3
v -7 -5 3
v -8 -5 3
v -8 -5 -3
v -8 7 -3
v -8 7 3
v -9 8 -3
v -9 8 3
v -9 7 3
v -9 7 -3
v -2 6 3
v -3 6 3
v -3 7 3
v -3 7 -3
v -3 3 -3
v -3 3 3
v -4 3 -3
v -8 -4 -3
v -8 -4 3
v -9 -4 3
v -9 -4 -3
v 11 6 -3
v 11 -1 -3
v 11 6 3
v 11 -1 3
v 10 6 -3
v 10 6 3
v 10 -1 3
v 10 -1 -3
v -2 6 -3
v -2 5 -3
v -2 5 3
v -3 6 -3
v -3 5 3
v -3 5 -3
v -6 6 -3
v -6 -5 -3
v -6 -5 3
v -7 6 -3
v -9 6 -3
v -9 -3 -3
v -9 6 3
v -9 -3 3
v -10 6 -3
v -10 6 3
v -10 -3 3
v -10 -3 -3
v 1 3 3
v 0 3 3
v -2 4 3
v -3 4 3
v 0 2 3
v -1 2 3
v -2 4 -3
v -3 4 -3
v 1 3 -3
v 0 3 -3
v 0 -7 3
v 0 -7 -3
v -5 2 3
v -5 3 3
v -5 3 -3
v -5 -6 -3
v -5 -6 3
v -6 3 -3
v -6 -6 3
v -6 -6 -3
v -10 3 -3
v -10 -1 -3
v -10 3 3
v -10 -1 3
v -11 3 -3
v -11 3 3
v -11 -1 3
v -11 -1 -3
v 0 2 -3
v -5 2 -3
v -5 -7 3
v -5 -7 -3
v 5 -6 -3
v 5 -7 -3
v 5 -6 3
v 5 -7 3
v -4 13 -3
v -4 13 3
v -6 12 -3
v -6 12 3
v -7 11 -3
v -7 11 3
v -8 10 -3
v -8 10 3
v -5 8 -3
v -9 9 -3
v -9 9 3
v -10 8 -3
v -10 8 3
v -11 6 -3
v -11 6 3
v 0 4 -3
v -1 9 -3
v -1 4 -3
v 1 5 -3
v 0 5 -3
v -1 2 -3

vn 1 0 0
vn 0 1 0
vn 0 -1 0
vn -1 0 0
vn 0 0 -1
vn 0 0 1

vt -19.68504 19.68504
vt 19.68504 19.68504
vt -19.68504 -19.68504
vt 0 NaN
vt 0 0
vt 0 NaN
vt 0 NaN
vt 0 NaN
vt 0 NaN
vt 0 NaN
vt 19.68504 -19.68504
vt 0 NaN
vt 0 NaN
vt 0 NaN
vt 0 NaN
vt 0 NaN
vt 0 NaN
vt 0 NaN
vt 0 NaN
vt 0 NaN
vt 0 NaN
vt 0 NaN
vt 0 NaN
vt 0 NaN
vt 0 NaN
vt 0 NaN
vt 0 NaN
vt 0 NaN
vt 0 NaN
vt 0 NaN
vt 0 NaN
vt 0 NaN
vt 0 NaN
vt 0 NaN
vt 0 NaN
vt 0 NaN
vt 0 NaN
vt 0 NaN
vt 0 NaN
vt 0 NaN
vt 0 NaN
vt 0 NaN
vt 0 NaN
vt 0 NaN
vt 0 NaN
vt 0 NaN
vt 0 NaN
vt 0 NaN
vt 0 NaN
vt 0 NaN
vt 0 NaN
vt 0 NaN
vt 0 NaN
vt 0 NaN
vt 0 NaN
vt 0 NaN
vt 0 NaN
vt 0 NaN
vt 0 NaN
vt 0 NaN
vt 0 NaN
vt 0 NaN
vt 0 NaN
vt 0 NaN
vt 0 NaN
vt 0 NaN
vt 0 NaN
vt 0 NaN
vt 0 NaN
vt 0 NaN
vt 0 NaN
vt 0 NaN
vt 0 NaN
vt 0 NaN
vt 0 NaN
vt 0 NaN
vt 0 NaN
vt 0 NaN
vt 0 NaN
vt 0 NaN
vt 0 NaN
vt 0 NaN
vt 0 NaN
vt 0 NaN
vt 0 NaN
vt 0 NaN
vt 0 NaN
vt 0 NaN
vt 0 NaN
vt 0 NaN
vt 0 NaN
vt 0 NaN
vt 0 NaN
vt 0 NaN
vt 0 NaN
vt 0 NaN
vt 0 NaN
vt 0 NaN
vt 0 NaN
vt 0 NaN
vt 0 NaN
vt 0 NaN
vt 0 NaN
vt 0 NaN
vt 0 NaN
vt 0 NaN
vt 0 NaN
vt 0 NaN
vt 0 NaN
vt 0 NaN
vt 0 NaN
vt 0 NaN
vt 0 NaN
vt 0 NaN
vt 0 NaN
vt 0 NaN
vt 0 NaN
vt 0 NaN
vt 0 NaN
vt 0 NaN
vt 0 NaN
vt 0 NaN
vt 0 NaN
vt 0 NaN
vt 0 NaN
vt 0 NaN
vt 0 NaN
vt 0 NaN
vt 0 NaN
vt 0 NaN
vt 0 NaN
vt 0 NaN
vt 0 NaN
vt 0 NaN
vt 0 NaN
vt 0 NaN
vt 0 NaN
vt 0 NaN
vt 0 NaN
vt 0 NaN
vt 0 NaN
vt 0 NaN
vt 0 NaN
vt 0 NaN
vt 0 NaN
vt 0 NaN
vt 0 NaN
vt 0 NaN
vt 0 NaN
vt 0 NaN
vt 0 NaN
vt 0 NaN
vt 0 NaN
vt 0 NaN
vt 0 NaN
vt 0 NaN
vt 0 NaN
vt 0 NaN
vt 0 NaN
vt 0 NaN
vt 0 NaN
vt 0 NaN
vt 0 NaN
vt 0 NaN
vt 0 NaN
vt 0 NaN
vt 0 NaN
vt 0 NaN
vt 0 NaN
vt 0 NaN
vt 0 NaN
vt 0 NaN
vt 0 NaN
vt 0 NaN
vt 0 NaN
vt 0 NaN
vt 0 NaN
vt 0 NaN
vt 0 NaN
vt 0 NaN
vt 0 NaN
vt 0 NaN
vt 0 NaN
vt 0 NaN
vt 0 NaN
vt 0 NaN
vt 0 NaN
vt 0 NaN
vt 0 NaN
vt 0 NaN
vt 0 NaN
vt 0 NaN
vt 0 NaN
vt 0 NaN
vt 0 NaN
vt 0 NaN
vt 0 NaN
vt 0 NaN
vt 0 NaN
vt 0 NaN
vt 0 NaN
vt 0 NaN
vt 0 NaN
vt 0 NaN
vt 0 NaN
vt 0 NaN
vt 0 NaN

usemtl color14

f 3/3/1 2/2/1 1/1/1
f 2/3/1 3/2/1 4/1/1
f 5/3/2 3/2/2 1/1/2
f 3/3/2 5/2/2 6/1/2
f 7/5/3 2/5/3 4/4/3
f 2/5/3 7/5/3 8/6/3
f 7/5/4 5/5/4 8/7/4
f 5/5/4 7/5/4 6/8/4
f 5/5/5 2/5/5 8/9/5
f 2/5/5 5/5/5 1/10/5
f 3/2/6 7/3/6 4/11/6
f 7/3/6 3/2/6 6/1/6
f 3/3/1 9/2/1 1/1/1
f 9/3/1 3/2/1 10/1/1
f 11/3/2 3/2/2 1/1/2
f 3/3/2 11/2/2 12/1/2
f 13/5/3 9/5/3 10/12/3
f 9/5/3 13/5/3 14/13/3
f 13/5/4 11/5/4 14/14/4
f 11/5/4 13/5/4 12/15/4
f 11/5/5 9/5/5 14/16/5
f 9/5/5 11/5/5 1/10/5
f 3/2/6 13/3/6 10/11/6
f 13/3/6 3/2/6 12/1/6
f 17/3/1 16/2/1 15/1/1
f 16/3/1 17/2/1 18/1/1
f 9/3/2 17/2/2 15/1/2
f 17/3/2 9/2/2 10/1/2
f 19/5/3 16/5/3 18/17/3
f 16/5/3 19/5/3 20/18/3
f 19/5/4 9/5/4 20/19/4
f 9/5/4 19/5/4 10/20/4
f 9/5/5 16/5/5 20/21/5
f 16/5/5 9/5/5 15/22/5
f 17/2/6 19/3/6 18/11/6
f 19/3/6 17/2/6 10/1/6
f 23/3/1 22/2/1 21/1/1
f 22/3/1 23/2/1 24/1/1
f 25/3/2 23/2/2 21/1/2
f 23/3/2 25/2/2 26/1/2
f 27/5/3 22/5/3 24/23/3
f 22/5/3 27/5/3 28/24/3
f 27/5/4 25/5/4 28/25/4
f 25/5/4 27/5/4 26/26/4
f 25/5/5 22/5/5 28/27/5
f 22/5/5 25/5/5 21/28/5
f 23/2/6 27/3/6 24/11/6
f 27/3/6 23/2/6 26/1/6
f 26/3/1 29/2/1 25/1/1
f 29/3/1 26/2/1 30/1/1
f 31/3/2 26/2/2 25/1/2
f 26/3/2 31/2/2 32/1/2
f 33/5/3 29/5/3 30/29/3
f 29/5/3 33/5/3 34/30/3
f 33/5/4 31/5/4 34/31/4
f 31/5/4 33/5/4 32/32/4
f 31/5/5 29/5/5 34/33/5
f 29/5/5 31/5/5 25/5/5
f 26/2/6 33/3/6 30/11/6
f 33/3/6 26/2/6 32/1/6
f 37/3/1 36/2/1 35/1/1
f 36/3/1 37/2/1 38/1/1
f 39/3/2 37/2/2 35/1/2
f 37/3/2 39/2/2 40/1/2
f 41/5/3 36/5/3 38/34/3
f 36/5/3 41/5/3 42/35/3
f 41/5/4 39/5/4 42/36/4
f 39/5/4 41/5/4 40/37/4
f 39/5/5 36/5/5 42/38/5
f 36/5/5 39/5/5 35/39/5
f 37/2/6 41/3/6 38/11/6
f 41/3/6 37/2/6 40/1/6
f 30/3/1 43/2/1 29/1/1
f 43/3/1 30/2/1 44/1/1
f 45/3/2 30/2/2 29/1/2
f 30/3/2 45/2/2 46/1/2
f 47/5/3 43/5/3 44/40/3
f 43/5/3 47/5/3 48/41/3
f 47/5/4 45/5/4 48/42/4
f 45/5/4 47/5/4 46/43/4
f 45/5/5 43/5/5 48/44/5
f 43/5/5 45/5/5 29/5/5
f 30/2/6 47/3/6 44/11/6
f 47/3/6 30/2/6 46/1/6
f 46/3/1 49/2/1 45/1/1
f 49/3/1 46/2/1 50/1/1
f 51/3/2 46/2/2 45/1/2
f 46/3/2 51/2/2 52/1/2
f 53/5/3 49/5/3 50/45/3
f 49/5/3 53/5/3 54/46/3
f 53/5/4 51/5/4 54/47/4
f 51/5/4 53/5/4 52/48/4
f 51/5/5 49/5/5 54/49/5
f 49/5/5 51/5/5 45/5/5
f 46/2/6 53/3/6 50/11/6
f 53/3/6 46/2/6 52/1/6
f 57/3/1 56/2/1 55/1/1
f 56/3/1 57/2/1 58/1/1
f 59/3/2 57/2/2 55/1/2
f 57/3/2 59/2/2 60/1/2
f 38/34/3 56/5/3 58/50/3
f 56/5/3 38/34/3 36/5/3
f 38/5/4 59/5/4 36/51/4
f 59/5/4 38/5/4 60/52/4
f 59/5/5 56/5/5 36/5/5
f 56/5/5 59/5/5 55/53/5
f 57/2/6 38/3/6 58/11/6
f 38/3/6 57/2/6 60/1/6
f 50/2/6 61/3/6 47/11/6
f 61/3/6 50/2/6 62/1/6
f 62/3/1 64/2/1 63/1/1
f 64/3/1 62/2/1 61/1/1
f 65/3/2 62/2/2 63/1/2
f 62/3/2 65/2/2 66/1/2
f 67/5/3 64/5/3 61/54/3
f 64/5/3 67/5/3 68/55/3
f 67/5/4 65/5/4 68/56/4
f 65/5/4 67/5/4 66/57/4
f 65/5/5 64/5/5 68/58/5
f 64/5/5 65/5/5 63/59/5
f 62/2/6 67/3/6 61/11/6
f 67/3/6 62/2/6 66/1/6
f 71/3/1 70/2/1 69/1/1
f 70/3/1 71/2/1 72/1/1
f 73/3/2 71/2/2 69/1/2
f 71/3/2 73/2/2 74/1/2
f 75/5/3 70/5/3 72/60/3
f 70/5/3 75/5/3 76/61/3
f 75/5/4 73/5/4 76/62/4
f 73/5/4 75/5/4 74/63/4
f 73/5/5 70/5/5 76/64/5
f 70/5/5 73/5/5 69/65/5
f 71/2/6 75/3/6 72/11/6
f 75/3/6 71/2/6 74/1/6
f 44/2/6 78/3/6 77/11/6
f 78/3/6 44/2/6 79/1/6
f 79/2/6 81/3/6 80/11/6
f 81/3/6 79/2/6 61/1/6
f 61/2/6 82/3/6 81/11/6
f 82/3/6 61/2/6 83/1/6
f 83/3/1 85/2/1 84/1/1
f 85/3/1 83/2/1 82/1/1
f 86/3/2 83/2/2 84/1/2
f 83/3/2 86/2/2 87/1/2
f 88/5/3 85/5/3 82/66/3
f 85/5/3 88/5/3 89/67/3
f 88/5/4 86/5/4 89/68/4
f 86/5/4 88/5/4 87/69/4
f 86/5/5 85/5/5 89/70/5
f 85/5/5 86/5/5 84/71/5
f 83/2/6 88/3/6 82/11/6
f 88/3/6 83/2/6 87/1/6
f 92/3/1 91/2/1 90/1/1
f 91/3/1 92/2/1 93/1/1
f 94/3/2 92/2/2 90/1/2
f 92/3/2 94/2/2 95/1/2
f 96/5/3 91/5/3 93/72/3
f 91/5/3 96/5/3 97/73/3
f 96/5/4 94/5/4 97/74/4
f 94/5/4 96/5/4 95/75/4
f 94/5/5 91/5/5 97/76/5
f 91/5/5 94/5/5 90/77/5
f 92/2/6 96/3/6 93/11/6
f 96/3/6 92/2/6 95/1/6
f 24/2/6 99/3/6 98/11/6
f 99/3/6 24/2/6 27/1/6
f 80/3/1 101/2/1 100/1/1
f 101/3/1 80/2/1 102/1/1
f 103/3/2 80/2/2 100/1/2
f 80/3/2 103/2/2 104/1/2
f 105/5/3 101/5/3 102/78/3
f 101/5/3 105/5/3 106/79/3
f 105/5/4 103/5/4 106/80/4
f 103/5/4 105/5/4 104/81/4
f 103/5/5 101/5/5 106/82/5
f 101/5/5 103/5/5 100/83/5
f 80/2/6 105/3/6 102/11/6
f 105/3/6 80/2/6 104/1/6
f 104/3/1 107/2/1 103/1/1
f 107/3/1 104/2/1 108/1/1
f 109/3/2 104/2/2 103/1/2
f 104/3/2 109/2/2 110/1/2
f 111/5/3 107/5/3 108/84/3
f 107/5/3 111/5/3 112/85/3
f 111/5/4 109/5/4 112/86/4
f 109/5/4 111/5/4 110/87/4
f 109/5/5 107/5/5 112/88/5
f 107/5/5 109/5/5 103/5/5
f 104/2/6 111/3/6 108/11/6
f 111/3/6 104/2/6 110/1/6
f 110/2/6 114/3/6 113/11/6
f 114/3/6 110/2/6 82/1/6
f 82/2/6 116/3/6 115/11/6
f 116/3/6 82/2/6 117/1/6
f 117/3/1 119/2/1 118/1/1
f 119/3/1 117/2/1 120/1/1
f 89/3/2 117/2/2 118/1/2
f 117/3/2 89/2/2 88/1/2
f 121/5/3 119/5/3 120/89/3
f 119/5/3 121/5/3 122/90/3
f 121/5/4 89/68/4 122/91/4
f 89/68/4 121/5/4 88/5/4
f 89/70/5 119/5/5 122/92/5
f 119/5/5 89/70/5 118/93/5
f 117/2/6 121/3/6 120/11/6
f 121/3/6 117/2/6 88/1/6
f 88/3/1 123/2/1 89/1/1
f 123/3/1 88/2/1 124/1/1
f 125/3/2 88/2/2 89/1/2
f 88/3/2 125/2/2 126/1/2
f 127/5/3 123/5/3 124/94/3
f 123/5/3 127/5/3 128/95/3
f 127/5/4 125/5/4 128/96/4
f 125/5/4 127/5/4 126/97/4
f 125/5/5 123/5/5 128/98/5
f 123/5/5 125/5/5 89/70/5
f 88/2/6 127/3/6 124/11/6
f 127/3/6 88/2/6 126/1/6
f 108/2/6 130/3/6 129/11/6
f 130/3/6 108/2/6 131/1/6
f 131/3/1 133/2/1 132/1/1
f 133/3/1 131/2/1 134/1/1
f 112/3/2 131/2/2 132/1/2
f 131/3/2 112/2/2 111/1/2
f 113/5/3 133/5/3 134/99/3
f 133/5/3 113/5/3 135/100/3
f 113/5/4 112/86/4 135/101/4
f 112/86/4 113/5/4 111/5/4
f 112/88/5 133/5/5 135/102/5
f 133/5/5 112/88/5 132/103/5
f 131/2/6 113/3/6 134/11/6
f 113/3/6 131/2/6 111/1/6
f 124/3/1 136/2/1 123/1/1
f 136/3/1 124/2/1 137/1/1
f 128/3/2 124/2/2 123/1/2
f 124/3/2 128/2/2 127/1/2
f 138/5/3 136/5/3 137/104/3
f 136/5/3 138/5/3 139/105/3
f 138/5/4 128/96/4 139/106/4
f 128/96/4 138/5/4 127/5/4
f 128/98/5 136/5/5 139/107/5
f 136/5/5 128/98/5 123/5/5
f 124/2/6 138/3/6 137/11/6
f 138/3/6 124/2/6 127/1/6
f 142/3/1 141/2/1 140/1/1
f 141/3/1 142/2/1 143/1/1
f 144/3/2 142/2/2 140/1/2
f 142/3/2 144/2/2 145/1/2
f 146/5/3 141/5/3 143/108/3
f 141/5/3 146/5/3 147/109/3
f 146/5/4 144/5/4 147/110/4
f 144/5/4 146/5/4 145/111/4
f 144/5/5 141/5/5 147/112/5
f 141/5/5 144/5/5 140/113/5
f 142/2/6 146/3/6 143/11/6
f 146/3/6 142/2/6 145/1/6
f 129/3/1 149/2/1 148/1/1
f 149/3/1 129/2/1 150/1/1
f 151/3/2 129/2/2 148/1/2
f 129/3/2 151/2/2 130/1/2
f 152/5/3 149/5/3 150/114/3
f 149/5/3 152/5/3 153/115/3
f 152/5/4 151/5/4 153/116/4
f 151/5/4 152/5/4 130/117/4
f 151/5/5 149/5/5 153/118/5
f 149/5/5 151/5/5 148/119/5
f 129/2/6 152/3/6 150/11/6
f 152/3/6 129/2/6 130/1/6
f 115/3/1 155/2/1 154/1/1
f 155/3/1 115/2/1 156/1/1
f 157/3/2 115/2/2 154/1/2
f 115/3/2 157/2/2 116/1/2
f 120/89/3 155/5/3 156/120/3
f 155/5/3 120/89/3 119/5/3
f 120/5/4 157/5/4 119/121/4
f 157/5/4 120/5/4 116/122/4
f 157/5/5 155/5/5 119/5/5
f 155/5/5 157/5/5 154/123/5
f 115/2/6 120/3/6 156/11/6
f 120/3/6 115/2/6 116/1/6
f 160/3/1 159/2/1 158/1/1
f 159/3/1 160/2/1 161/1/1
f 162/3/2 160/2/2 158/1/2
f 160/3/2 162/2/2 163/1/2
f 164/5/3 159/5/3 161/124/3
f 159/5/3 164/5/3 165/125/3
f 164/5/4 162/5/4 165/126/4
f 162/5/4 164/5/4 163/127/4
f 162/5/5 159/5/5 165/128/5
f 159/5/5 162/5/5 158/129/5
f 160/2/6 164/3/6 161/11/6
f 164/3/6 160/2/6 163/1/6
f 98/2/6 167/3/6 166/11/6
f 167/3/6 98/2/6 99/1/6
f 150/2/6 169/3/6 168/11/6
f 169/3/6 150/2/6 152/1/6
f 77/2/6 171/3/6 170/11/6
f 171/3/6 77/2/6 78/1/6
f 168/3/1 106/2/1 172/1/1
f 106/3/1 168/2/1 105/1/1
f 173/3/2 168/2/2 172/1/2
f 168/3/2 173/2/2 169/1/2
f 134/99/3 106/79/3 105/5/3
f 106/79/3 134/99/3 133/5/3
f 134/5/4 173/5/4 133/130/4
f 173/5/4 134/5/4 169/131/4
f 173/5/5 106/82/5 133/5/5
f 106/82/5 173/5/5 172/132/5
f 168/2/6 134/3/6 105/11/6
f 134/3/6 168/2/6 169/1/6
f 166/3/1 8/2/1 174/1/1
f 8/3/1 166/2/1 7/1/1
f 175/3/2 166/2/2 174/1/2
f 166/3/2 175/2/2 167/1/2
f 176/5/3 8/6/3 7/5/3
f 8/6/3 176/5/3 177/133/3
f 176/5/4 175/5/4 177/134/4
f 175/5/4 176/5/4 167/135/4
f 175/5/5 8/9/5 177/136/5
f 8/9/5 175/5/5 174/137/5
f 166/2/6 176/3/6 7/11/6
f 176/3/6 166/2/6 167/1/6
f 102/2/6 178/3/6 171/11/6
f 178/3/6 102/2/6 179/1/6
f 179/3/1 181/2/1 180/1/1
f 181/3/1 179/2/1 182/1/1
f 183/3/2 179/2/2 180/1/2
f 179/3/2 183/2/2 114/1/2
f 184/5/3 181/5/3 182/138/3
f 181/5/3 184/5/3 185/139/3
f 184/5/4 183/5/4 185/140/4
f 183/5/4 184/5/4 114/141/4
f 183/5/5 181/5/5 185/142/5
f 181/5/5 183/5/5 180/143/5
f 179/2/6 184/3/6 182/11/6
f 184/3/6 179/2/6 114/1/6
f 188/3/1 187/2/1 186/1/1
f 187/3/1 188/2/1 189/1/1
f 190/3/2 188/2/2 186/1/2
f 188/3/2 190/2/2 191/1/2
f 192/5/3 187/5/3 189/144/3
f 187/5/3 192/5/3 193/145/3
f 192/5/4 190/5/4 193/146/4
f 190/5/4 192/5/4 191/147/4
f 190/5/5 187/5/5 193/148/5
f 187/5/5 190/5/5 186/149/5
f 188/2/6 192/3/6 189/11/6
f 192/3/6 188/2/6 191/1/6
f 170/3/1 177/2/1 194/1/1
f 177/3/1 170/2/1 176/1/1
f 195/3/2 170/2/2 194/1/2
f 170/3/2 195/2/2 178/1/2
f 196/5/3 177/133/3 176/5/3
f 177/133/3 196/5/3 197/150/3
f 196/5/4 195/5/4 197/151/4
f 195/5/4 196/5/4 178/152/4
f 195/5/5 177/136/5 197/153/5
f 177/136/5 195/5/5 194/154/5
f 170/2/6 196/3/6 176/11/6
f 196/3/6 170/2/6 178/1/6
f 200/3/1 199/2/1 198/1/1
f 199/3/1 200/2/1 201/1/1
f 20/3/2 200/2/2 198/1/2
f 200/3/2 20/2/2 19/1/2
f 4/4/3 199/5/3 201/155/3
f 199/5/3 4/4/3 2/5/3
f 4/5/4 20/19/4 2/156/4
f 20/19/4 4/5/4 19/5/4
f 20/21/5 199/5/5 2/5/5
f 199/5/5 20/21/5 198/157/5
f 200/2/6 4/3/6 201/11/6
f 4/3/6 200/2/6 19/1/6
f 26/3/1 29/2/1 25/1/1
f 29/3/1 26/2/1 30/1/1
f 31/3/2 26/2/2 25/1/2
f 26/3/2 31/2/2 32/1/2
f 33/5/3 29/5/3 30/29/3
f 29/5/3 33/5/3 34/30/3
f 33/5/4 31/5/4 34/31/4
f 31/5/4 33/5/4 32/32/4
f 31/5/5 29/5/5 34/33/5
f 29/5/5 31/5/5 25/5/5
f 26/2/6 33/3/6 30/11/6
f 33/3/6 26/2/6 32/1/6
f 46/3/1 49/2/1 45/1/1
f 49/3/1 46/2/1 50/1/1
f 51/3/2 46/2/2 45/1/2
f 46/3/2 51/2/2 52/1/2
f 53/5/3 49/5/3 50/45/3
f 49/5/3 53/5/3 54/46/3
f 53/5/4 51/5/4 54/47/4
f 51/5/4 53/5/4 52/48/4
f 51/5/5 49/5/5 54/49/5
f 49/5/5 51/5/5 45/5/5
f 46/2/6 53/3/6 50/11/6
f 53/3/6 46/2/6 52/1/6
f 79/2/6 81/3/6 80/11/6
f 81/3/6 79/2/6 61/1/6
f 104/3/1 107/2/1 103/1/1
f 107/3/1 104/2/1 108/1/1
f 109/3/2 104/2/2 103/1/2
f 104/3/2 109/2/2 110/1/2
f 111/5/3 107/5/3 108/84/3
f 107/5/3 111/5/3 112/85/3
f 111/5/4 109/5/4 112/86/4
f 109/5/4 111/5/4 110/87/4
f 109/5/5 107/5/5 112/88/5
f 107/5/5 109/5/5 103/5/5
f 104/2/6 111/3/6 108/11/6
f 111/3/6 104/2/6 110/1/6
f 88/3/1 123/2/1 89/1/1
f 123/3/1 88/2/1 124/1/1
f 125/3/2 88/2/2 89/1/2
f 88/3/2 125/2/2 126/1/2
f 127/5/3 123/5/3 124/94/3
f 123/5/3 127/5/3 128/95/3
f 127/5/4 125/5/4 128/96/4
f 125/5/4 127/5/4 126/97/4
f 125/5/5 123/5/5 128/98/5
f 123/5/5 125/5/5 89/70/5
f 88/2/6 127/3/6 124/11/6
f 127/3/6 88/2/6 126/1/6

usemtl color12

f 6/3/1 21/2/1 5/1/1
f 21/3/1 6/2/1 23/1/1
f 202/3/2 6/2/2 5/1/2
f 6/3/2 202/2/2 203/1/2
f 32/5/3 21/5/3 23/158/3
f 21/5/3 32/5/3 31/159/3
f 32/32/4 202/5/4 31/5/4
f 202/5/4 32/32/4 203/160/4
f 202/5/5 21/28/5 31/5/5
f 21/28/5 202/5/5 5/5/5
f 6/2/6 32/3/6 23/11/6
f 32/3/6 6/2/6 203/1/6
f 32/3/1 34/2/1 31/1/1
f 34/3/1 32/2/1 33/1/1
f 204/3/2 32/2/2 31/1/2
f 32/3/2 204/2/2 205/1/2
f 52/5/3 34/30/3 33/5/3
f 34/30/3 52/5/3 51/161/3
f 52/48/4 204/5/4 51/5/4
f 204/5/4 52/48/4 205/162/4
f 204/5/5 34/33/5 51/5/5
f 34/33/5 204/5/5 31/5/5
f 32/2/6 52/3/6 33/11/6
f 52/3/6 32/2/6 205/1/6
f 52/3/1 54/2/1 51/1/1
f 54/3/1 52/2/1 53/1/1
f 206/3/2 52/2/2 51/1/2
f 52/3/2 206/2/2 207/1/2
f 66/5/3 54/46/3 53/5/3
f 54/46/3 66/5/3 65/163/3
f 66/57/4 206/5/4 65/5/4
f 206/5/4 66/57/4 207/164/4
f 206/5/5 54/49/5 65/5/5
f 54/49/5 206/5/5 51/5/5
f 52/2/6 66/3/6 53/11/6
f 66/3/6 52/2/6 207/1/6
f 50/3/1 48/2/1 49/1/1
f 48/3/1 50/2/1 47/1/1
f 63/3/2 50/2/2 49/1/2
f 50/3/2 63/2/2 62/1/2
f 61/54/3 48/41/3 47/5/3
f 48/41/3 61/54/3 64/5/3
f 61/5/4 63/5/4 64/165/4
f 63/5/4 61/5/4 62/166/4
f 63/59/5 48/44/5 64/5/5
f 48/44/5 63/59/5 49/5/5
f 66/3/1 68/2/1 65/1/1
f 68/3/1 66/2/1 67/1/1
f 208/3/2 66/2/2 65/1/2
f 66/3/2 208/2/2 209/1/2
f 87/5/3 68/55/3 67/5/3
f 68/55/3 87/5/3 86/167/3
f 87/69/4 208/5/4 86/5/4
f 208/5/4 87/69/4 209/168/4
f 208/5/5 68/58/5 86/5/5
f 68/58/5 208/5/5 65/5/5
f 66/2/6 87/3/6 67/11/6
f 87/3/6 66/2/6 209/1/6
f 61/3/1 210/2/1 64/1/1
f 210/3/1 61/2/1 81/1/1
f 84/3/2 61/2/2 64/1/2
f 61/3/2 84/2/2 83/1/2
f 82/66/3 210/5/3 81/169/3
f 210/5/3 82/66/3 85/5/3
f 82/5/4 84/5/4 85/170/4
f 84/5/4 82/5/4 83/171/4
f 84/71/5 210/5/5 85/5/5
f 210/5/5 84/71/5 64/5/5
f 87/3/1 89/2/1 86/1/1
f 89/3/1 87/2/1 88/1/1
f 211/3/2 87/2/2 86/1/2
f 87/3/2 211/2/2 212/1/2
f 126/5/3 89/67/3 88/5/3
f 89/67/3 126/5/3 125/172/3
f 126/97/4 211/5/4 125/5/4
f 211/5/4 126/97/4 212/173/4
f 211/5/5 89/70/5 125/5/5
f 89/70/5 211/5/5 86/5/5
f 87/2/6 126/3/6 88/11/6
f 126/3/6 87/2/6 212/1/6
f 82/3/1 154/2/1 85/1/1
f 154/3/1 82/2/1 115/1/1
f 118/3/2 82/2/2 85/1/2
f 82/3/2 118/2/2 117/1/2
f 116/5/3 154/5/3 115/174/3
f 154/5/3 116/5/3 157/175/3
f 116/122/4 118/5/4 157/5/4
f 118/5/4 116/122/4 117/176/4
f 118/93/5 154/123/5 157/5/5
f 154/123/5 118/93/5 85/5/5
f 126/3/1 158/2/1 125/1/1
f 158/3/1 126/2/1 160/1/1
f 213/3/2 126/2/2 125/1/2
f 126/3/2 213/2/2 214/1/2
f 163/5/3 158/5/3 160/177/3
f 158/5/3 163/5/3 162/178/3
f 163/127/4 213/5/4 162/5/4
f 213/5/4 163/127/4 214/179/4
f 213/5/5 158/129/5 162/5/5
f 158/129/5 213/5/5 125/5/5
f 126/2/6 163/3/6 160/11/6
f 163/3/6 126/2/6 214/1/6
f 163/3/1 186/2/1 162/1/1
f 186/3/1 163/2/1 188/1/1
f 215/3/2 163/2/2 162/1/2
f 163/3/2 215/2/2 216/1/2
f 191/5/3 186/5/3 188/180/3
f 186/5/3 191/5/3 190/181/3
f 191/147/4 215/5/4 190/5/4
f 215/5/4 191/147/4 216/182/4
f 215/5/5 186/149/5 190/5/5
f 186/149/5 215/5/5 162/5/5
f 163/2/6 191/3/6 188/11/6
f 191/3/6 163/2/6 216/1/6

usemtl color15

f 44/3/1 217/2/1 43/1/1
f 217/3/1 44/2/1 77/1/1
f 218/3/2 44/2/2 43/1/2
f 44/3/2 218/2/2 79/1/2
f 78/5/3 217/5/3 77/183/3
f 217/5/3 78/5/3 219/184/3
f 78/5/4 218/5/4 219/185/4
f 218/5/4 78/5/4 79/186/4
f 218/5/5 217/5/5 219/187/5
f 217/5/5 218/5/5 43/5/5
f 79/3/1 100/2/1 218/1/1
f 100/3/1 79/2/1 80/1/1
f 64/3/2 79/2/2 218/1/2
f 79/3/2 64/2/2 61/1/2
f 81/169/3 100/5/3 80/188/3
f 100/5/3 81/169/3 210/5/3
f 81/5/4 64/165/4 210/189/4
f 64/165/4 81/5/4 61/5/4
f 64/5/5 100/83/5 210/5/5
f 100/83/5 64/5/5 218/5/5
f 24/3/1 220/2/1 22/1/1
f 220/3/1 24/2/1 98/1/1
f 28/3/2 24/2/2 22/1/2
f 24/3/2 28/2/2 27/1/2
f 99/5/3 220/5/3 98/190/3
f 220/5/3 99/5/3 221/191/3
f 99/5/4 28/25/4 221/192/4
f 28/25/4 99/5/4 27/5/4
f 28/27/5 220/5/5 221/193/5
f 220/5/5 28/27/5 22/5/5
f 110/3/1 135/2/1 109/1/1
f 135/3/1 110/2/1 113/1/1
f 85/3/2 110/2/2 109/1/2
f 110/3/2 85/2/2 82/1/2
f 114/5/3 135/100/3 113/5/3
f 135/100/3 114/5/3 183/194/3
f 114/141/4 85/170/4 183/5/4
f 85/170/4 114/141/4 82/5/4
f 85/5/5 135/102/5 183/5/5
f 135/102/5 85/5/5 109/5/5
f 108/3/1 148/2/1 107/1/1
f 148/3/1 108/2/1 129/1/1
f 132/3/2 108/2/2 107/1/2
f 108/3/2 132/2/2 131/1/2
f 130/5/3 148/5/3 129/195/3
f 148/5/3 130/5/3 151/196/3
f 130/117/4 132/5/4 151/5/4
f 132/5/4 130/117/4 131/197/4
f 132/103/5 148/119/5 151/5/5
f 148/119/5 132/103/5 107/5/5
f 150/3/1 172/2/1 149/1/1
f 172/3/1 150/2/1 168/1/1
f 153/3/2 150/2/2 149/1/2
f 150/3/2 153/2/2 152/1/2
f 169/5/3 172/5/3 168/198/3
f 172/5/3 169/5/3 173/199/3
f 169/131/4 153/116/4 173/5/4
f 153/116/4 169/131/4 152/5/4
f 153/118/5 172/132/5 173/5/5
f 172/132/5 153/118/5 149/5/5
f 79/3/1 100/2/1 218/1/1
f 100/3/1 79/2/1 80/1/1
f 64/3/2 79/2/2 218/1/2
f 79/3/2 64/2/2 61/1/2
f 81/169/3 100/5/3 80/188/3
f 100/5/3 81/169/3 210/5/3
f 81/5/4 64/165/4 210/189/4
f 64/165/4 81/5/4 61/5/4
f 64/5/5 100/83/5 210/5/5
f 100/83/5 64/5/5 218/5/5

usemtl color13

f 98/3/1 174/2/1 220/1/1
f 174/3/1 98/2/1 166/1/1
f 221/3/2 98/2/2 220/1/2
f 98/3/2 221/2/2 99/1/2
f 167/5/3 174/5/3 166/200/3
f 174/5/3 167/5/3 175/201/3
f 167/135/4 221/192/4 175/5/4
f 221/192/4 167/135/4 99/5/4
f 221/193/5 174/137/5 175/5/5
f 174/137/5 221/193/5 220/5/5
f 77/3/1 194/2/1 217/1/1
f 194/3/1 77/2/1 170/1/1
f 219/3/2 77/2/2 217/1/2
f 77/3/2 219/2/2 78/1/2
f 171/5/3 194/5/3 170/202/3
f 194/5/3 171/5/3 222/203/3
f 171/5/4 219/185/4 222/204/4
f 219/185/4 171/5/4 78/5/4
f 219/187/5 194/154/5 222/205/5
f 194/154/5 219/187/5 217/5/5
f 102/3/1 222/2/1 101/1/1
f 222/3/1 102/2/1 171/1/1
f 180/3/2 102/2/2 101/1/2
f 102/3/2 180/2/2 179/1/2
f 178/5/3 222/203/3 171/5/3
f 222/203/3 178/5/3 195/206/3
f 178/152/4 180/5/4 195/5/4
f 180/5/4 178/152/4 179/207/4
f 180/143/5 222/205/5 195/5/5
f 222/205/5 180/143/5 101/5/5

