# Created by Kenney (www.kenney.nl)

mtllib Jar2.mtl

v 3 20 -2.2
v 3 18 -2.2
v 3 20 2.2
v 3 18 2.2
v 2 20 -2.2
v 2 20 2.2
v 2 18 2.2
v 2 18 -2.2
v 3 19 -2.2
v 3 19 2.2
v 2 19 2.2
v 2 19 -2.2
v -2 20 -2.2
v -2 20 2.2
v -2 18 2.2
v -2 18 -2.2
v -3 20 -2.2
v -3 20 2.2
v -3 18 2.2
v -3 18 -2.2
v 3 18 -2.75
v 3 16 -2.75
v 3 18 2.75
v 3 16 2.75
v -3 18 -2.75
v -3 18 2.75
v -3 16 2.75
v -3 16 -2.75
v 2 14 -2.2
v 2 -14 -2.2
v 2 14 2.2
v 2 -14 2.2
v -2 14 -2.2
v -2 14 2.2
v -2 -14 2.2
v -2 -14 -2.2
v 3 3 -2.2
v 3 -14 -2.2
v 3 3 2.2
v 3 -14 2.2
v 2 3 -2.2
v 2 3 2.2
v -2 3 -2.2
v -2 3 2.2
v -3 3 -2.2
v -3 3 2.2
v -3 -14 2.2
v -3 -14 -2.2
v 4 2 -2.2
v 4 -14 -2.2
v 4 2 2.2
v 4 -14 2.2
v 3 2 -2.2
v 3 2 2.2
v -3 2 -2.2
v -3 -1 -2.2
v -3 2 2.2
v -3 -1 2.2
v -4 2 -2.2
v -4 2 2.2
v -4 -1 2.2
v -4 -1 -2.2
v 5 1 -2.2
v 5 -13 -2.2
v 5 1 2.2
v 5 -13 2.2
v 4 1 -2.2
v 4 1 2.2
v 4 -13 2.2
v 4 -13 -2.2
v -4 1 -2.2
v -4 -2 -2.2
v -4 1 2.2
v -4 -2 2.2
v -5 1 -2.2
v -5 1 2.2
v -5 -2 2.2
v -5 -2 -2.2
v 6 0 -2.2
v 6 -13 -2.2
v 6 0 2.2
v 6 -13 2.2
v 5 0 -2.2
v 5 0 2.2
v -5 0 -2.2
v -5 -3 -2.2
v -5 0 2.2
v -5 -3 2.2
v -6 0 -2.2
v -6 0 2.2
v -6 -3 2.2
v -6 -3 -2.2
v 7 -1 -2.2
v 7 -13 -2.2
v 7 -1 2.2
v 7 -13 2.2
v 6 -1 -2.2
v 6 -1 2.2
v -6 -1 -2.2
v -6 -13 -2.2
v -6 -1 2.2
v -6 -13 2.2
v -7 -1 -2.2
v -7 -1 2.2
v -7 -13 2.2
v -7 -13 -2.2
v 8 -2 -2.2
v 8 -12 -2.2
v 8 -2 2.2
v 8 -12 2.2
v 7 -2 -2.2
v 7 -2 2.2
v 7 -12 2.2
v 7 -12 -2.2
v -3 -2 -2.2
v -3 -11 -2.2
v -3 -2 2.2
v -3 -11 2.2
v -4 -11 2.2
v -4 -11 -2.2
v -7 -2 -2.2
v -7 -12 -2.2
v -7 -2 2.2
v -7 -12 2.2
v -8 -2 -2.2
v -8 -2 2.2
v -8 -12 2.2
v -8 -12 -2.2
v -4 -3 -2.2
v -4 -13 -2.2
v -4 -3 2.2
v -4 -13 2.2
v -5 -13 2.2
v -5 -13 -2.2
v 9 -4 -2.2
v 9 -10 -2.2
v 9 -4 2.2
v 9 -10 2.2
v 8 -4 -2.2
v 8 -4 2.2
v 8 -10 2.2
v 8 -10 -2.2
v -5 -4 -2.2
v -5 -6 -2.2
v -5 -4 2.2
v -5 -6 2.2
v -6 -4 -2.2
v -6 -4 2.2
v -6 -6 2.2
v -6 -6 -2.2
v -8 -4 -2.2
v -8 -10 -2.2
v -8 -4 2.2
v -8 -10 2.2
v -9 -4 -2.2
v -9 -4 2.2
v -9 -10 2.2
v -9 -10 -2.2
v -5 -10 -2.2
v -5 -10 2.2
v -6 -10 -2.2
v -6 -10 2.2
v -3 -12 -2.2
v -3 -12 2.2
v -4 -12 -2.2
v -4 -12 2.2
v -4 -14 2.2
v -4 -14 -2.2
v 2 16 -2.2
v 2 16 2.2
v -2 16 -2.2
v -2 16 2.2
v 9 -14 -2.2
v 9 -14 2.2
v 8 -14 2.2
v 8 -14 -2.2
v -8 -14 -2.2
v -8 -14 2.2
v -9 -14 2.2
v -9 -14 -2.2
v 8 -15 -2.2
v 8 -15 2.2
v 7 -15 2.2
v 7 -15 -2.2
v -7 -15 -2.2
v -7 -15 2.2
v -8 -15 2.2
v -8 -15 -2.2
v 7 -16 -2.2
v 7 -16 2.2
v 4 -16 2.2
v 4 -16 -2.2
v -4 -17 -2.2
v -4 -17 2.2
v -6 -17 2.2
v -6 -17 -2.2
v -6 -14 -2.2
v -6 -14 2.2
v -7 -14 2.2
v -7 -14 -2.2
v 4 -17 -2.2
v 4 -17 2.2
v -6 -16 -2.2
v -6 -16 2.2
v -7 -16 2.2
v -7 -16 -2.2
v 6 -16 -2.2
v 6 -17 -2.2
v 6 -16 2.2
v 6 -17 2.2

vn 1 0 0
vn 0 1 0
vn 0 -1 0
vn -1 0 0
vn 0 0 -1
vn 0 0 1

vt -19.68504 19.68504
vt 19.68504 19.68504
vt -19.68504 -19.68504
vt 0 NaN
vt 0 0
vt 0 NaN
vt 0 NaN
vt 0 NaN
vt 0 NaN
vt 0 NaN
vt 19.68504 -19.68504
vt 0 NaN
vt 0 NaN
vt 0 NaN
vt 0 NaN
vt 0 NaN
vt 0 NaN
vt 0 NaN
vt 0 NaN
vt 0 NaN
vt 0 NaN
vt 0 NaN
vt 0 NaN
vt 0 NaN
vt 0 NaN
vt 0 NaN
vt 0 NaN
vt 0 NaN
vt 0 NaN
vt 0 NaN
vt 0 NaN
vt 0 NaN
vt 0 NaN
vt 0 NaN
vt 0 NaN
vt 0 NaN
vt 0 NaN
vt 0 NaN
vt 0 NaN
vt 0 NaN
vt 0 NaN
vt 0 NaN
vt 0 NaN
vt 0 NaN
vt 0 NaN
vt 0 NaN
vt 0 NaN
vt 0 NaN
vt 0 NaN
vt 0 NaN
vt 0 NaN
vt 0 NaN
vt 0 NaN
vt 0 NaN
vt 0 NaN
vt 0 NaN
vt 0 NaN
vt 0 NaN
vt 0 NaN
vt 0 NaN
vt 0 NaN
vt 0 NaN
vt 0 NaN
vt 0 NaN
vt 0 NaN
vt 0 NaN
vt 0 NaN
vt 0 NaN
vt 0 NaN
vt 0 NaN
vt 0 NaN
vt 0 NaN
vt 0 NaN
vt 0 NaN
vt 0 NaN
vt 0 NaN
vt 0 NaN
vt 0 NaN
vt 0 NaN
vt 0 NaN
vt 0 NaN
vt 0 NaN
vt 0 NaN
vt 0 NaN
vt 0 NaN
vt 0 NaN
vt 0 NaN
vt 0 NaN
vt 0 NaN
vt 0 NaN
vt 0 NaN
vt 0 NaN
vt 0 NaN
vt 0 NaN
vt 0 NaN
vt 0 NaN
vt 0 NaN
vt 0 NaN
vt 0 NaN
vt 0 NaN
vt 0 NaN
vt 0 NaN
vt 0 NaN
vt 0 NaN
vt 0 NaN
vt 0 NaN
vt 0 NaN
vt 0 NaN
vt 0 NaN
vt 0 NaN
vt 0 NaN
vt 0 NaN
vt 0 NaN
vt 0 NaN
vt 0 NaN
vt 0 NaN
vt 0 NaN
vt 0 NaN
vt 0 NaN
vt 0 NaN
vt 0 NaN
vt 0 NaN
vt 0 NaN
vt 0 NaN
vt 0 NaN
vt 0 NaN
vt 0 NaN
vt 0 NaN
vt 0 NaN
vt 0 NaN
vt 0 NaN
vt 0 NaN
vt 0 NaN
vt 0 NaN
vt 0 NaN
vt 0 NaN
vt 0 NaN
vt 0 NaN
vt 0 NaN
vt 0 NaN
vt 0 NaN
vt 0 NaN
vt 0 NaN
vt 0 NaN
vt 0 NaN
vt 0 NaN
vt 0 NaN
vt 0 NaN
vt 0 NaN
vt 0 NaN
vt 0 NaN
vt 0 NaN
vt 0 NaN
vt 0 NaN
vt 0 NaN
vt 0 NaN
vt 0 NaN
vt 0 NaN
vt 0 NaN
vt 0 NaN
vt 0 NaN
vt 0 NaN
vt 0 NaN
vt 0 NaN
vt 0 NaN
vt 0 NaN
vt 0 NaN
vt 0 NaN
vt 0 NaN
vt 0 NaN
vt 0 NaN
vt 0 NaN
vt 0 NaN
vt 0 NaN
vt 0 NaN
vt 0 NaN
vt 0 NaN
vt 0 NaN
vt 0 NaN
vt 0 NaN
vt 0 NaN
vt 0 NaN
vt 0 NaN
vt 0 NaN
vt 0 NaN

usemtl color2

f 3/3/1 2/2/1 1/1/1
f 2/3/1 3/2/1 4/1/1
f 5/3/2 3/2/2 1/1/2
f 3/3/2 5/2/2 6/1/2
f 7/5/3 2/5/3 4/4/3
f 2/5/3 7/5/3 8/6/3
f 7/5/4 5/5/4 8/7/4
f 5/5/4 7/5/4 6/8/4
f 5/5/5 2/5/5 8/9/5
f 2/5/5 5/5/5 1/10/5
f 3/2/6 7/3/6 4/11/6
f 7/3/6 3/2/6 6/1/6
f 3/3/1 9/2/1 1/1/1
f 9/3/1 3/2/1 10/1/1
f 5/3/2 3/2/2 1/1/2
f 3/3/2 5/2/2 6/1/2
f 11/5/3 9/5/3 10/12/3
f 9/5/3 11/5/3 12/13/3
f 11/5/4 5/5/4 12/14/4
f 5/5/4 11/5/4 6/8/4
f 5/5/5 9/5/5 12/15/5
f 9/5/5 5/5/5 1/10/5
f 3/2/6 11/3/6 10/11/6
f 11/3/6 3/2/6 6/1/6

usemtl color0

f 6/3/1 8/2/1 5/1/1
f 8/3/1 6/2/1 7/1/1
f 13/3/2 6/2/2 5/1/2
f 6/3/2 13/2/2 14/1/2
f 15/5/3 8/6/3 7/5/3
f 8/6/3 15/5/3 16/16/3
f 15/5/4 13/5/4 16/17/4
f 13/5/4 15/5/4 14/18/4
f 13/5/5 8/9/5 16/19/5
f 8/9/5 13/5/5 5/5/5
f 6/2/6 15/3/6 7/11/6
f 15/3/6 6/2/6 14/1/6

usemtl color1

f 14/3/1 16/2/1 13/1/1
f 16/3/1 14/2/1 15/1/1
f 17/3/2 14/2/2 13/1/2
f 14/3/2 17/2/2 18/1/2
f 19/5/3 16/16/3 15/5/3
f 16/16/3 19/5/3 20/20/3
f 19/5/4 17/5/4 20/21/4
f 17/5/4 19/5/4 18/22/4
f 17/5/5 16/19/5 20/23/5
f 16/19/5 17/5/5 13/5/5
f 14/2/6 19/3/6 15/11/6
f 19/3/6 14/2/6 18/1/6

usemtl color13

f 23/3/1 22/2/1 21/1/1
f 22/3/1 23/2/1 24/1/1
f 25/3/2 23/2/2 21/1/2
f 23/3/2 25/2/2 26/1/2
f 27/5/3 22/5/3 24/24/3
f 22/5/3 27/5/3 28/25/3
f 27/5/4 25/5/4 28/26/4
f 25/5/4 27/5/4 26/27/4
f 25/5/5 22/5/5 28/28/5
f 22/5/5 25/5/5 21/29/5
f 23/2/6 27/3/6 24/11/6
f 27/3/6 23/2/6 26/1/6
f 31/3/1 30/2/1 29/1/1
f 30/3/1 31/2/1 32/1/1
f 33/3/2 31/2/2 29/1/2
f 31/3/2 33/2/2 34/1/2
f 35/5/3 30/5/3 32/30/3
f 30/5/3 35/5/3 36/31/3
f 35/5/4 33/5/4 36/32/4
f 33/5/4 35/5/4 34/33/4
f 33/5/5 30/5/5 36/34/5
f 30/5/5 33/5/5 29/35/5
f 31/2/6 35/3/6 32/11/6
f 35/3/6 31/2/6 34/1/6
f 39/3/1 38/2/1 37/1/1
f 38/3/1 39/2/1 40/1/1
f 41/3/2 39/2/2 37/1/2
f 39/3/2 41/2/2 42/1/2
f 32/30/3 38/5/3 40/36/3
f 38/5/3 32/30/3 30/5/3
f 32/5/4 41/5/4 30/37/4
f 41/5/4 32/5/4 42/38/4
f 41/5/5 38/5/5 30/5/5
f 38/5/5 41/5/5 37/39/5
f 39/2/6 32/3/6 40/11/6
f 32/3/6 39/2/6 42/1/6
f 44/3/1 36/2/1 43/1/1
f 36/3/1 44/2/1 35/1/1
f 45/3/2 44/2/2 43/1/2
f 44/3/2 45/2/2 46/1/2
f 47/5/3 36/31/3 35/5/3
f 36/31/3 47/5/3 48/40/3
f 47/5/4 45/5/4 48/41/4
f 45/5/4 47/5/4 46/42/4
f 45/5/5 36/34/5 48/43/5
f 36/34/5 45/5/5 43/44/5
f 44/2/6 47/3/6 35/11/6
f 47/3/6 44/2/6 46/1/6
f 51/3/1 50/2/1 49/1/1
f 50/3/1 51/2/1 52/1/1
f 53/3/2 51/2/2 49/1/2
f 51/3/2 53/2/2 54/1/2
f 40/36/3 50/5/3 52/45/3
f 50/5/3 40/36/3 38/5/3
f 40/5/4 53/5/4 38/46/4
f 53/5/4 40/5/4 54/47/4
f 53/5/5 50/5/5 38/5/5
f 50/5/5 53/5/5 49/48/5
f 51/2/6 40/3/6 52/11/6
f 40/3/6 51/2/6 54/1/6
f 57/3/1 56/2/1 55/1/1
f 56/3/1 57/2/1 58/1/1
f 59/3/2 57/2/2 55/1/2
f 57/3/2 59/2/2 60/1/2
f 61/5/3 56/5/3 58/49/3
f 56/5/3 61/5/3 62/50/3
f 61/5/4 59/5/4 62/51/4
f 59/5/4 61/5/4 60/52/4
f 59/5/5 56/5/5 62/53/5
f 56/5/5 59/5/5 55/54/5
f 57/2/6 61/3/6 58/11/6
f 61/3/6 57/2/6 60/1/6
f 65/3/1 64/2/1 63/1/1
f 64/3/1 65/2/1 66/1/1
f 67/3/2 65/2/2 63/1/2
f 65/3/2 67/2/2 68/1/2
f 69/5/3 64/5/3 66/55/3
f 64/5/3 69/5/3 70/56/3
f 69/5/4 67/5/4 70/57/4
f 67/5/4 69/5/4 68/58/4
f 67/5/5 64/5/5 70/59/5
f 64/5/5 67/5/5 63/60/5
f 65/2/6 69/3/6 66/11/6
f 69/3/6 65/2/6 68/1/6
f 73/3/1 72/2/1 71/1/1
f 72/3/1 73/2/1 74/1/1
f 75/3/2 73/2/2 71/1/2
f 73/3/2 75/2/2 76/1/2
f 77/5/3 72/5/3 74/61/3
f 72/5/3 77/5/3 78/62/3
f 77/5/4 75/5/4 78/63/4
f 75/5/4 77/5/4 76/64/4
f 75/5/5 72/5/5 78/65/5
f 72/5/5 75/5/5 71/66/5
f 73/2/6 77/3/6 74/11/6
f 77/3/6 73/2/6 76/1/6
f 81/3/1 80/2/1 79/1/1
f 80/3/1 81/2/1 82/1/1
f 83/3/2 81/2/2 79/1/2
f 81/3/2 83/2/2 84/1/2
f 66/55/3 80/5/3 82/67/3
f 80/5/3 66/55/3 64/5/3
f 66/5/4 83/5/4 64/68/4
f 83/5/4 66/5/4 84/69/4
f 83/5/5 80/5/5 64/5/5
f 80/5/5 83/5/5 79/70/5
f 81/2/6 66/3/6 82/11/6
f 66/3/6 81/2/6 84/1/6
f 87/3/1 86/2/1 85/1/1
f 86/3/1 87/2/1 88/1/1
f 89/3/2 87/2/2 85/1/2
f 87/3/2 89/2/2 90/1/2
f 91/5/3 86/5/3 88/71/3
f 86/5/3 91/5/3 92/72/3
f 91/5/4 89/5/4 92/73/4
f 89/5/4 91/5/4 90/74/4
f 89/5/5 86/5/5 92/75/5
f 86/5/5 89/5/5 85/76/5
f 87/2/6 91/3/6 88/11/6
f 91/3/6 87/2/6 90/1/6
f 95/3/1 94/2/1 93/1/1
f 94/3/1 95/2/1 96/1/1
f 97/3/2 95/2/2 93/1/2
f 95/3/2 97/2/2 98/1/2
f 82/67/3 94/5/3 96/77/3
f 94/5/3 82/67/3 80/5/3
f 82/5/4 97/5/4 80/78/4
f 97/5/4 82/5/4 98/79/4
f 97/5/5 94/5/5 80/5/5
f 94/5/5 97/5/5 93/80/5
f 95/2/6 82/3/6 96/11/6
f 82/3/6 95/2/6 98/1/6
f 101/3/1 100/2/1 99/1/1
f 100/3/1 101/2/1 102/1/1
f 103/3/2 101/2/2 99/1/2
f 101/3/2 103/2/2 104/1/2
f 105/5/3 100/5/3 102/81/3
f 100/5/3 105/5/3 106/82/3
f 105/5/4 103/5/4 106/83/4
f 103/5/4 105/5/4 104/84/4
f 103/5/5 100/5/5 106/85/5
f 100/5/5 103/5/5 99/86/5
f 101/2/6 105/3/6 102/11/6
f 105/3/6 101/2/6 104/1/6
f 109/3/1 108/2/1 107/1/1
f 108/3/1 109/2/1 110/1/1
f 111/3/2 109/2/2 107/1/2
f 109/3/2 111/2/2 112/1/2
f 113/5/3 108/5/3 110/87/3
f 108/5/3 113/5/3 114/88/3
f 113/5/4 111/5/4 114/89/4
f 111/5/4 113/5/4 112/90/4
f 111/5/5 108/5/5 114/91/5
f 108/5/5 111/5/5 107/92/5
f 109/2/6 113/3/6 110/11/6
f 113/3/6 109/2/6 112/1/6
f 117/3/1 116/2/1 115/1/1
f 116/3/1 117/2/1 118/1/1
f 72/3/2 117/2/2 115/1/2
f 117/3/2 72/2/2 74/1/2
f 119/5/3 116/5/3 118/93/3
f 116/5/3 119/5/3 120/94/3
f 119/5/4 72/5/4 120/95/4
f 72/5/4 119/5/4 74/96/4
f 72/5/5 116/5/5 120/97/5
f 116/5/5 72/5/5 115/98/5
f 117/2/6 119/3/6 118/11/6
f 119/3/6 117/2/6 74/1/6
f 123/3/1 122/2/1 121/1/1
f 122/3/1 123/2/1 124/1/1
f 125/3/2 123/2/2 121/1/2
f 123/3/2 125/2/2 126/1/2
f 127/5/3 122/5/3 124/99/3
f 122/5/3 127/5/3 128/100/3
f 127/5/4 125/5/4 128/101/4
f 125/5/4 127/5/4 126/102/4
f 125/5/5 122/5/5 128/103/5
f 122/5/5 125/5/5 121/104/5
f 123/2/6 127/3/6 124/11/6
f 127/3/6 123/2/6 126/1/6
f 131/3/1 130/2/1 129/1/1
f 130/3/1 131/2/1 132/1/1
f 86/3/2 131/2/2 129/1/2
f 131/3/2 86/2/2 88/1/2
f 133/5/3 130/5/3 132/105/3
f 130/5/3 133/5/3 134/106/3
f 133/5/4 86/5/4 134/107/4
f 86/5/4 133/5/4 88/108/4
f 86/5/5 130/5/5 134/109/5
f 130/5/5 86/5/5 129/110/5
f 131/2/6 133/3/6 132/11/6
f 133/3/6 131/2/6 88/1/6
f 137/3/1 136/2/1 135/1/1
f 136/3/1 137/2/1 138/1/1
f 139/3/2 137/2/2 135/1/2
f 137/3/2 139/2/2 140/1/2
f 141/5/3 136/5/3 138/111/3
f 136/5/3 141/5/3 142/112/3
f 141/5/4 139/5/4 142/113/4
f 139/5/4 141/5/4 140/114/4
f 139/5/5 136/5/5 142/115/5
f 136/5/5 139/5/5 135/116/5
f 137/2/6 141/3/6 138/11/6
f 141/3/6 137/2/6 140/1/6
f 145/3/1 144/2/1 143/1/1
f 144/3/1 145/2/1 146/1/1
f 147/3/2 145/2/2 143/1/2
f 145/3/2 147/2/2 148/1/2
f 149/5/3 144/5/3 146/117/3
f 144/5/3 149/5/3 150/118/3
f 149/5/4 147/5/4 150/119/4
f 147/5/4 149/5/4 148/120/4
f 147/5/5 144/5/5 150/121/5
f 144/5/5 147/5/5 143/122/5
f 145/2/6 149/3/6 146/11/6
f 149/3/6 145/2/6 148/1/6
f 153/3/1 152/2/1 151/1/1
f 152/3/1 153/2/1 154/1/1
f 155/3/2 153/2/2 151/1/2
f 153/3/2 155/2/2 156/1/2
f 157/5/3 152/5/3 154/123/3
f 152/5/3 157/5/3 158/124/3
f 157/5/4 155/5/4 158/125/4
f 155/5/4 157/5/4 156/126/4
f 155/5/5 152/5/5 158/127/5
f 152/5/5 155/5/5 151/128/5
f 153/2/6 157/3/6 154/11/6
f 157/3/6 153/2/6 156/1/6
f 160/3/1 134/2/1 159/1/1
f 134/3/1 160/2/1 133/1/1
f 161/3/2 160/2/2 159/1/2
f 160/3/2 161/2/2 162/1/2
f 102/81/3 134/106/3 133/5/3
f 134/106/3 102/81/3 100/5/3
f 102/5/4 161/5/4 100/129/4
f 161/5/4 102/5/4 162/130/4
f 161/5/5 134/109/5 100/5/5
f 134/109/5 161/5/5 159/131/5
f 160/2/6 102/3/6 133/11/6
f 102/3/6 160/2/6 162/1/6
f 164/3/1 48/2/1 163/1/1
f 48/3/1 164/2/1 47/1/1
f 165/3/2 164/2/2 163/1/2
f 164/3/2 165/2/2 166/1/2
f 167/5/3 48/40/3 47/5/3
f 48/40/3 167/5/3 168/132/3
f 167/5/4 165/5/4 168/133/4
f 165/5/4 167/5/4 166/134/4
f 165/5/5 48/43/5 168/135/5
f 48/43/5 165/5/5 163/136/5
f 164/2/6 167/3/6 47/11/6
f 167/3/6 164/2/6 166/1/6

usemtl color12

f 170/3/1 29/2/1 169/1/1
f 29/3/1 170/2/1 31/1/1
f 171/3/2 170/2/2 169/1/2
f 170/3/2 171/2/2 172/1/2
f 34/5/3 29/5/3 31/137/3
f 29/5/3 34/5/3 33/138/3
f 34/33/4 171/5/4 33/5/4
f 171/5/4 34/33/4 172/139/4
f 171/5/5 29/35/5 33/5/5
f 29/35/5 171/5/5 169/140/5
f 170/2/6 34/3/6 31/11/6
f 34/3/6 170/2/6 172/1/6
f 138/3/1 173/2/1 136/1/1
f 173/3/1 138/2/1 174/1/1
f 142/3/2 138/2/2 136/1/2
f 138/3/2 142/2/2 141/1/2
f 175/5/3 173/5/3 174/141/3
f 173/5/3 175/5/3 176/142/3
f 175/5/4 142/113/4 176/143/4
f 142/113/4 175/5/4 141/5/4
f 142/115/5 173/5/5 176/144/5
f 173/5/5 142/115/5 136/5/5
f 138/2/6 175/3/6 174/11/6
f 175/3/6 138/2/6 141/1/6
f 154/3/1 177/2/1 152/1/1
f 177/3/1 154/2/1 178/1/1
f 158/3/2 154/2/2 152/1/2
f 154/3/2 158/2/2 157/1/2
f 179/5/3 177/5/3 178/145/3
f 177/5/3 179/5/3 180/146/3
f 179/5/4 158/125/4 180/147/4
f 158/125/4 179/5/4 157/5/4
f 158/127/5 177/5/5 180/148/5
f 177/5/5 158/127/5 152/5/5
f 154/2/6 179/3/6 178/11/6
f 179/3/6 154/2/6 157/1/6
f 110/3/1 181/2/1 108/1/1
f 181/3/1 110/2/1 182/1/1
f 114/3/2 110/2/2 108/1/2
f 110/3/2 114/2/2 113/1/2
f 183/5/3 181/5/3 182/149/3
f 181/5/3 183/5/3 184/150/3
f 183/5/4 114/89/4 184/151/4
f 114/89/4 183/5/4 113/5/4
f 114/91/5 181/5/5 184/152/5
f 181/5/5 114/91/5 108/5/5
f 110/2/6 183/3/6 182/11/6
f 183/3/6 110/2/6 113/1/6
f 124/3/1 185/2/1 122/1/1
f 185/3/1 124/2/1 186/1/1
f 128/3/2 124/2/2 122/1/2
f 124/3/2 128/2/2 127/1/2
f 187/5/3 185/5/3 186/153/3
f 185/5/3 187/5/3 188/154/3
f 187/5/4 128/101/4 188/155/4
f 128/101/4 187/5/4 127/5/4
f 128/103/5 185/5/5 188/156/5
f 185/5/5 128/103/5 122/5/5
f 124/2/6 187/3/6 186/11/6
f 187/3/6 124/2/6 127/1/6
f 96/3/1 189/2/1 94/1/1
f 189/3/1 96/2/1 190/1/1
f 70/3/2 96/2/2 94/1/2
f 96/3/2 70/2/2 69/1/2
f 191/5/3 189/5/3 190/157/3
f 189/5/3 191/5/3 192/158/3
f 191/5/4 70/57/4 192/159/4
f 70/57/4 191/5/4 69/5/4
f 70/59/5 189/5/5 192/160/5
f 189/5/5 70/59/5 94/5/5
f 96/2/6 191/3/6 190/11/6
f 191/3/6 96/2/6 69/1/6
f 132/3/1 193/2/1 130/1/1
f 193/3/1 132/2/1 194/1/1
f 100/3/2 132/2/2 130/1/2
f 132/3/2 100/2/2 102/1/2
f 195/5/3 193/5/3 194/161/3
f 193/5/3 195/5/3 196/162/3
f 195/5/4 100/129/4 196/163/4
f 100/129/4 195/5/4 102/5/4
f 100/5/5 193/5/5 196/164/5
f 193/5/5 100/5/5 130/5/5
f 132/2/6 195/3/6 194/11/6
f 195/3/6 132/2/6 102/1/6
f 102/3/1 197/2/1 100/1/1
f 197/3/1 102/2/1 198/1/1
f 106/3/2 102/2/2 100/1/2
f 102/3/2 106/2/2 105/1/2
f 199/5/3 197/5/3 198/165/3
f 197/5/3 199/5/3 200/166/3
f 199/5/4 106/83/4 200/167/4
f 106/83/4 199/5/4 105/5/4
f 106/85/5 197/5/5 200/168/5
f 197/5/5 106/85/5 100/5/5
f 102/2/6 199/3/6 198/11/6
f 199/3/6 102/2/6 105/1/6
f 52/3/1 201/2/1 50/1/1
f 201/3/1 52/2/1 202/1/1
f 168/3/2 52/2/2 50/1/2
f 52/3/2 168/2/2 167/1/2
f 194/161/3 201/5/3 202/169/3
f 201/5/3 194/161/3 193/5/3
f 194/5/4 168/133/4 193/170/4
f 168/133/4 194/5/4 167/5/4
f 168/135/5 201/5/5 193/5/5
f 201/5/5 168/135/5 50/5/5
f 52/2/6 194/3/6 202/11/6
f 194/3/6 52/2/6 167/1/6
f 198/3/1 203/2/1 197/1/1
f 203/3/1 198/2/1 204/1/1
f 200/3/2 198/2/2 197/1/2
f 198/3/2 200/2/2 199/1/2
f 205/5/3 203/5/3 204/171/3
f 203/5/3 205/5/3 206/172/3
f 205/5/4 200/167/4 206/173/4
f 200/167/4 205/5/4 199/5/4
f 200/168/5 203/5/5 206/174/5
f 203/5/5 200/168/5 197/5/5
f 198/2/6 205/3/6 204/11/6
f 205/3/6 198/2/6 199/1/6
f 209/3/1 208/2/1 207/1/1
f 208/3/1 209/2/1 210/1/1
f 192/3/2 209/2/2 207/1/2
f 209/3/2 192/2/2 191/1/2
f 202/169/3 208/5/3 210/175/3
f 208/5/3 202/169/3 201/5/3
f 202/5/4 192/159/4 201/176/4
f 192/159/4 202/5/4 191/5/4
f 192/160/5 208/5/5 201/5/5
f 208/5/5 192/160/5 207/177/5
f 209/2/6 202/3/6 210/11/6
f 202/3/6 209/2/6 191/1/6
f 102/3/1 197/2/1 100/1/1
f 197/3/1 102/2/1 198/1/1
f 106/3/2 102/2/2 100/1/2
f 102/3/2 106/2/2 105/1/2
f 199/5/3 197/5/3 198/165/3
f 197/5/3 199/5/3 200/166/3
f 199/5/4 106/83/4 200/167/4
f 106/83/4 199/5/4 105/5/4
f 106/85/5 197/5/5 200/168/5
f 197/5/5 106/85/5 100/5/5
f 102/2/6 199/3/6 198/11/6
f 199/3/6 102/2/6 105/1/6

usemtl color15

f 58/3/1 115/2/1 56/1/1
f 115/3/1 58/2/1 117/1/1
f 62/3/2 58/2/2 56/1/2
f 58/3/2 62/2/2 61/1/2
f 74/61/3 115/5/3 117/178/3
f 115/5/3 74/61/3 72/5/3
f 74/96/4 62/51/4 72/5/4
f 62/51/4 74/96/4 61/5/4
f 62/53/5 115/98/5 72/5/5
f 115/98/5 62/53/5 56/5/5
f 58/2/6 74/3/6 117/11/6
f 74/3/6 58/2/6 61/1/6
f 74/3/1 129/2/1 72/1/1
f 129/3/1 74/2/1 131/1/1
f 78/3/2 74/2/2 72/1/2
f 74/3/2 78/2/2 77/1/2
f 88/71/3 129/5/3 131/179/3
f 129/5/3 88/71/3 86/5/3
f 88/108/4 78/63/4 86/5/4
f 78/63/4 88/108/4 77/5/4
f 78/65/5 129/110/5 86/5/5
f 129/110/5 78/65/5 72/5/5
f 74/2/6 88/3/6 131/11/6
f 88/3/6 74/2/6 77/1/6
f 88/3/1 143/2/1 86/1/1
f 143/3/1 88/2/1 145/1/1
f 92/3/2 88/2/2 86/1/2
f 88/3/2 92/2/2 91/1/2
f 148/5/3 143/5/3 145/180/3
f 143/5/3 148/5/3 147/181/3
f 148/120/4 92/73/4 147/5/4
f 92/73/4 148/120/4 91/5/4
f 92/75/5 143/122/5 147/5/5
f 143/122/5 92/75/5 86/5/5
f 88/2/6 148/3/6 145/11/6
f 148/3/6 88/2/6 91/1/6
f 146/3/1 159/2/1 144/1/1
f 159/3/1 146/2/1 160/1/1
f 150/3/2 146/2/2 144/1/2
f 146/3/2 150/2/2 149/1/2
f 162/5/3 159/5/3 160/182/3
f 159/5/3 162/5/3 161/183/3
f 162/130/4 150/119/4 161/5/4
f 150/119/4 162/130/4 149/5/4
f 150/121/5 159/131/5 161/5/5
f 159/131/5 150/121/5 144/5/5
f 146/2/6 162/3/6 160/11/6
f 162/3/6 146/2/6 149/1/6
f 118/3/1 163/2/1 116/1/1
f 163/3/1 118/2/1 164/1/1
f 120/3/2 118/2/2 116/1/2
f 118/3/2 120/2/2 119/1/2
f 166/5/3 163/5/3 164/184/3
f 163/5/3 166/5/3 165/185/3
f 166/134/4 120/95/4 165/5/4
f 120/95/4 166/134/4 119/5/4
f 120/97/5 163/136/5 165/5/5
f 163/136/5 120/97/5 116/5/5
f 118/2/6 166/3/6 164/11/6
f 166/3/6 118/2/6 119/1/6

