# Created by Kenney (www.kenney.nl)

mtllib Medal.mtl

v 11 14 -0.5
v 11 8 -0.5
v 11 14 0.5
v 11 8 0.5
v 10 14 -0.5
v 10 14 0.5
v 10 8 0.5
v 10 8 -0.5
v -10 14 -0.5
v -10 8 -0.5
v -10 14 0.5
v -10 8 0.5
v -11 14 -0.5
v -11 14 0.5
v -11 8 0.5
v -11 8 -0.5
v 11 13 -0.5
v 11 13 0.5
v 10 13 0.5
v 10 13 -0.5
v 10 1 -0.5
v 10 1 0.5
v 9 8 -0.5
v 9 8 0.5
v 9 1 0.5
v 9 1 -0.5
v -9 8 -0.5
v -9 1 -0.5
v -9 8 0.5
v -9 1 0.5
v -10 1 0.5
v -10 1 -0.5
v 9 -6 -0.5
v 9 -6 0.5
v 8 1 -0.5
v 8 1 0.5
v 8 -6 0.5
v 8 -6 -0.5
v -8 1 -0.5
v -8 -6 -0.5
v -8 1 0.5
v -8 -6 0.5
v -9 -6 0.5
v -9 -6 -0.5
v 8 -2 -0.5
v 8 -2 0.5
v 7 -2 -0.5
v 7 -2 0.5
v 7 -6 0.5
v 7 -6 -0.5
v -7 -2 -0.5
v -7 -6 -0.5
v -7 -2 0.5
v -7 -6 0.5
v -8 -2 -0.5
v -8 -2 0.5
v 5 -5 -0.5
v 5 -7 -0.5
v 5 -5 0.5
v 5 -7 0.5
v 3 -5 -0.5
v 3 -5 0.5
v 3 -7 0.5
v 3 -7 -0.5
v -3 -5 -0.5
v -3 -7 -0.5
v -3 -5 0.5
v -3 -7 0.5
v -5 -5 -0.5
v -5 -5 0.5
v -5 -7 0.5
v -5 -7 -0.5
v 3 -6 -0.5
v 3 -6 0.5
v 2 -6 -0.5
v 2 -6 0.5
v 2 -7 0.5
v 2 -7 -0.5
v -2 -6 -0.5
v -2 -7 -0.5
v -2 -6 0.5
v -2 -7 0.5
v -3 -6 -0.5
v -3 -6 0.5
v 7 14 -0.5
v 7 14 0.5
v 7 8 0.5
v 7 8 -0.5
v 5 14 -0.5
v 5 14 0.5
v 2 14 -0.5
v 2 14 0.5
v 2 -5 0.5
v 2 -5 -0.5
v -2 14 -0.5
v -2 14 0.5
v -3 14 -0.5
v -3 14 0.5
v -3 13 -0.5
v -3 13 0.5
v -5 14 -0.5
v -5 14 0.5
v -5 13 0.5
v -5 13 -0.5
v -7 14 -0.5
v -7 14 0.5
v -8 14 -0.5
v -8 14 0.5
v -8 13 -0.5
v -8 13 0.5
v -10 13 0.5
v -10 13 -0.5
v -9 14 -0.5
v -9 14 0.5
v -9 13 -0.5
v -9 13 0.5
v 7 1 0.5
v 7 1 -0.5
v 7 -4 -0.5
v 7 -4 0.5
v 5 -4 0.5
v 5 -4 -0.5
v -6 14 -0.5
v -6 14 0.5
v -6 -5 0.5
v -6 -5 -0.5
v -6 13 -0.5
v -6 13 0.5
v -7 13 0.5
v -7 13 -0.5
v -6 -4 -0.5
v -6 -4 0.5
v -7 -4 0.5
v -7 -4 -0.5
v 6 -4 -0.5
v 6 -5 -0.5
v 6 -4 0.5
v 6 -5 0.5
v 7 -7 -0.5
v 7 -7 0.5
v 6 -7 0.5
v 6 -7 -0.5
v -6 -7 -0.5
v -6 -7 0.5
v -7 -7 0.5
v -7 -7 -0.5
v 5 -8 -0.5
v 5 -8 0.5
v -5 -8 0.5
v -5 -8 -0.5
v 7 -12 -0.5
v 7 -16 -0.5
v 7 -12 0.5
v 7 -16 0.5
v 6 -12 -0.5
v 6 -12 0.5
v 6 -16 0.5
v 6 -16 -0.5
v -6 -12 -0.5
v -6 -16 -0.5
v -6 -12 0.5
v -6 -16 0.5
v -7 -12 -0.5
v -7 -12 0.5
v -7 -16 0.5
v -7 -16 -0.5
v 6 -15 -0.5
v 6 -17 -0.5
v 6 -15 0.5
v 6 -17 0.5
v 5 -15 -0.5
v 5 -15 0.5
v 5 -17 0.5
v 5 -17 -0.5
v -5 -15 -0.5
v -5 -17 -0.5
v -5 -15 0.5
v -5 -17 0.5
v -6 -15 -0.5
v -6 -15 0.5
v -6 -17 0.5
v -6 -17 -0.5
v 5 -16 -0.5
v 5 -18 -0.5
v 5 -16 0.5
v 5 -18 0.5
v 4 -16 -0.5
v 4 -16 0.5
v 4 -18 0.5
v 4 -18 -0.5
v -4 -16 -0.5
v -4 -18 -0.5
v -4 -16 0.5
v -4 -18 0.5
v -5 -16 -0.5
v -5 -16 0.5
v -5 -18 0.5
v -5 -18 -0.5
v 4 -17 -0.5
v 4 -19 -0.5
v 4 -17 0.5
v 4 -19 0.5
v -4 -17 -0.5
v -4 -17 0.5
v -4 -19 0.5
v -4 -19 -0.5
v 6 -8 -0.5
v 6 -8 0.5
v -6 -8 -0.5
v -6 -8 0.5
v 7 -10 -0.5
v 7 -10 0.5
v 6 -10 -0.5
v 6 -10 0.5
v -6 -10 -0.5
v -6 -10 0.5
v -7 -10 -0.5
v -7 -10 0.5

vn 1 0 0
vn 0 1 0
vn 0 -1 0
vn -1 0 0
vn 0 0 -1
vn 0 0 1

vt -19.68504 19.68504
vt 19.68504 19.68504
vt -19.68504 -19.68504
vt 0 NaN
vt 0 0
vt 0 NaN
vt 0 NaN
vt 0 NaN
vt 0 NaN
vt 0 NaN
vt 19.68504 -19.68504
vt 0 NaN
vt 0 NaN
vt 0 NaN
vt 0 NaN
vt 0 NaN
vt 0 NaN
vt 0 NaN
vt 0 NaN
vt 0 NaN
vt 0 NaN
vt 0 NaN
vt 0 NaN
vt 0 NaN
vt 0 NaN
vt 0 NaN
vt 0 NaN
vt 0 NaN
vt 0 NaN
vt 0 NaN
vt 0 NaN
vt 0 NaN
vt 0 NaN
vt 0 NaN
vt 0 NaN
vt 0 NaN
vt 0 NaN
vt 0 NaN
vt 0 NaN
vt 0 NaN
vt 0 NaN
vt 0 NaN
vt 0 NaN
vt 0 NaN
vt 0 NaN
vt 0 NaN
vt 0 NaN
vt 0 NaN
vt 0 NaN
vt 0 NaN
vt 0 NaN
vt 0 NaN
vt 0 NaN
vt 0 NaN
vt 0 NaN
vt 0 NaN
vt 0 NaN
vt 0 NaN
vt 0 NaN
vt 0 NaN
vt 0 NaN
vt 0 NaN
vt 0 NaN
vt 0 NaN
vt 0 NaN
vt 0 NaN
vt 0 NaN
vt 0 NaN
vt 0 NaN
vt 0 NaN
vt 0 NaN
vt 0 NaN
vt 0 NaN
vt 0 NaN
vt 0 NaN
vt 0 NaN
vt 0 NaN
vt 0 NaN
vt 0 NaN
vt 0 NaN
vt 0 NaN
vt 0 NaN
vt 0 NaN
vt 0 NaN
vt 0 NaN
vt 0 NaN
vt 0 NaN
vt 0 NaN
vt 0 NaN
vt 0 NaN
vt 0 NaN
vt 0 NaN
vt 0 NaN
vt 0 NaN
vt 0 NaN
vt 0 NaN
vt 0 NaN
vt 0 NaN
vt 0 NaN
vt 0 NaN
vt 0 NaN
vt 0 NaN
vt 0 NaN
vt 0 NaN
vt 0 NaN
vt 0 NaN
vt 0 NaN
vt 0 NaN
vt 0 NaN
vt 0 NaN
vt 0 NaN
vt 0 NaN
vt 0 NaN
vt 0 NaN
vt 0 NaN
vt 0 NaN
vt 0 NaN
vt 0 NaN
vt 0 NaN
vt 0 NaN
vt 0 NaN
vt 0 NaN
vt 0 NaN
vt 0 NaN
vt 0 NaN
vt 0 NaN
vt 0 NaN
vt 0 NaN
vt 0 NaN
vt 0 NaN
vt 0 NaN
vt 0 NaN
vt 0 NaN
vt 0 NaN
vt 0 NaN
vt 0 NaN
vt 0 NaN
vt 0 NaN
vt 0 NaN
vt 0 NaN
vt 0 NaN
vt 0 NaN
vt 0 NaN
vt 0 NaN
vt 0 NaN
vt 0 NaN
vt 0 NaN
vt 0 NaN
vt 0 NaN
vt 0 NaN
vt 0 NaN
vt 0 NaN
vt 0 NaN
vt 0 NaN
vt 0 NaN
vt 0 NaN
vt 0 NaN
vt 0 NaN
vt 0 NaN
vt 0 NaN
vt 0 NaN
vt 0 NaN
vt 0 NaN
vt 0 NaN
vt 0 NaN
vt 0 NaN
vt 0 NaN
vt 0 NaN
vt 0 NaN
vt 0 NaN
vt 0 NaN
vt 0 NaN
vt 0 NaN
vt 0 NaN
vt 0 NaN
vt 0 NaN
vt 0 NaN
vt 0 NaN
vt 0 NaN
vt 0 NaN
vt 0 NaN
vt 0 NaN
vt 0 NaN
vt 0 NaN
vt 0 NaN
vt 0 NaN
vt 0 NaN
vt 0 NaN
vt 0 NaN
vt 0 NaN
vt 0 NaN
vt 0 NaN
vt 0 NaN
vt 0 NaN
vt 0 NaN
vt 0 NaN
vt 0 NaN
vt 0 NaN
vt 0 NaN
vt 0 NaN
vt 0 NaN
vt 0 NaN
vt 0 NaN
vt 0 NaN
vt 0 NaN
vt 0 NaN
vt 0 NaN
vt 0 NaN
vt 0 NaN
vt 0 NaN
vt 0 NaN
vt 0 NaN
vt 0 NaN

usemtl color10

f 3/3/1 2/2/1 1/1/1
f 2/3/1 3/2/1 4/1/1
f 5/3/2 3/2/2 1/1/2
f 3/3/2 5/2/2 6/1/2
f 7/5/3 2/5/3 4/4/3
f 2/5/3 7/5/3 8/6/3
f 7/5/4 5/5/4 8/7/4
f 5/5/4 7/5/4 6/8/4
f 5/5/5 2/5/5 8/9/5
f 2/5/5 5/5/5 1/10/5
f 3/2/6 7/3/6 4/11/6
f 7/3/6 3/2/6 6/1/6
f 11/3/1 10/2/1 9/1/1
f 10/3/1 11/2/1 12/1/1
f 13/3/2 11/2/2 9/1/2
f 11/3/2 13/2/2 14/1/2
f 15/5/3 10/5/3 12/12/3
f 10/5/3 15/5/3 16/13/3
f 15/5/4 13/5/4 16/14/4
f 13/5/4 15/5/4 14/15/4
f 13/5/5 10/5/5 16/16/5
f 10/5/5 13/5/5 9/17/5
f 11/2/6 15/3/6 12/11/6
f 15/3/6 11/2/6 14/1/6
f 3/3/1 17/2/1 1/1/1
f 17/3/1 3/2/1 18/1/1
f 5/3/2 3/2/2 1/1/2
f 3/3/2 5/2/2 6/1/2
f 19/5/3 17/5/3 18/18/3
f 17/5/3 19/5/3 20/19/3
f 19/5/4 5/5/4 20/20/4
f 5/5/4 19/5/4 6/8/4
f 5/5/5 17/5/5 20/21/5
f 17/5/5 5/5/5 1/10/5
f 3/2/6 19/3/6 18/11/6
f 19/3/6 3/2/6 6/1/6
f 7/3/1 21/2/1 8/1/1
f 21/3/1 7/2/1 22/1/1
f 23/3/2 7/2/2 8/1/2
f 7/3/2 23/2/2 24/1/2
f 25/5/3 21/5/3 22/22/3
f 21/5/3 25/5/3 26/23/3
f 25/5/4 23/5/4 26/24/4
f 23/5/4 25/5/4 24/25/4
f 23/5/5 21/5/5 26/26/5
f 21/5/5 23/5/5 8/9/5
f 7/2/6 25/3/6 22/11/6
f 25/3/6 7/2/6 24/1/6
f 29/3/1 28/2/1 27/1/1
f 28/3/1 29/2/1 30/1/1
f 10/3/2 29/2/2 27/1/2
f 29/3/2 10/2/2 12/1/2
f 31/5/3 28/5/3 30/27/3
f 28/5/3 31/5/3 32/28/3
f 31/5/4 10/5/4 32/29/4
f 10/5/4 31/5/4 12/30/4
f 10/5/5 28/5/5 32/31/5
f 28/5/5 10/5/5 27/32/5
f 29/2/6 31/3/6 30/11/6
f 31/3/6 29/2/6 12/1/6
f 25/3/1 33/2/1 26/1/1
f 33/3/1 25/2/1 34/1/1
f 35/3/2 25/2/2 26/1/2
f 25/3/2 35/2/2 36/1/2
f 37/5/3 33/5/3 34/33/3
f 33/5/3 37/5/3 38/34/3
f 37/5/4 35/5/4 38/35/4
f 35/5/4 37/5/4 36/36/4
f 35/5/5 33/5/5 38/37/5
f 33/5/5 35/5/5 26/26/5
f 25/2/6 37/3/6 34/11/6
f 37/3/6 25/2/6 36/1/6
f 41/3/1 40/2/1 39/1/1
f 40/3/1 41/2/1 42/1/1
f 28/3/2 41/2/2 39/1/2
f 41/3/2 28/2/2 30/1/2
f 43/5/3 40/5/3 42/38/3
f 40/5/3 43/5/3 44/39/3
f 43/5/4 28/5/4 44/40/4
f 28/5/4 43/5/4 30/41/4
f 28/5/5 40/5/5 44/42/5
f 40/5/5 28/5/5 39/43/5
f 41/2/6 43/3/6 42/11/6
f 43/3/6 41/2/6 30/1/6
f 46/3/1 38/2/1 45/1/1
f 38/3/1 46/2/1 37/1/1
f 47/3/2 46/2/2 45/1/2
f 46/3/2 47/2/2 48/1/2
f 49/5/3 38/34/3 37/5/3
f 38/34/3 49/5/3 50/44/3
f 49/5/4 47/5/4 50/45/4
f 47/5/4 49/5/4 48/46/4
f 47/5/5 38/37/5 50/47/5
f 38/37/5 47/5/5 45/48/5
f 46/2/6 49/3/6 37/11/6
f 49/3/6 46/2/6 48/1/6
f 53/3/1 52/2/1 51/1/1
f 52/3/1 53/2/1 54/1/1
f 55/3/2 53/2/2 51/1/2
f 53/3/2 55/2/2 56/1/2
f 42/38/3 52/5/3 54/49/3
f 52/5/3 42/38/3 40/5/3
f 42/5/4 55/5/4 40/50/4
f 55/5/4 42/5/4 56/51/4
f 55/5/5 52/5/5 40/5/5
f 52/5/5 55/5/5 51/52/5
f 53/2/6 42/3/6 54/11/6
f 42/3/6 53/2/6 56/1/6
f 59/3/1 58/2/1 57/1/1
f 58/3/1 59/2/1 60/1/1
f 61/3/2 59/2/2 57/1/2
f 59/3/2 61/2/2 62/1/2
f 63/5/3 58/5/3 60/53/3
f 58/5/3 63/5/3 64/54/3
f 63/5/4 61/5/4 64/55/4
f 61/5/4 63/5/4 62/56/4
f 61/5/5 58/5/5 64/57/5
f 58/5/5 61/5/5 57/58/5
f 59/2/6 63/3/6 60/11/6
f 63/3/6 59/2/6 62/1/6
f 67/3/1 66/2/1 65/1/1
f 66/3/1 67/2/1 68/1/1
f 69/3/2 67/2/2 65/1/2
f 67/3/2 69/2/2 70/1/2
f 71/5/3 66/5/3 68/59/3
f 66/5/3 71/5/3 72/60/3
f 71/5/4 69/5/4 72/61/4
f 69/5/4 71/5/4 70/62/4
f 69/5/5 66/5/5 72/63/5
f 66/5/5 69/5/5 65/64/5
f 67/2/6 71/3/6 68/11/6
f 71/3/6 67/2/6 70/1/6
f 74/3/1 64/2/1 73/1/1
f 64/3/1 74/2/1 63/1/1
f 75/3/2 74/2/2 73/1/2
f 74/3/2 75/2/2 76/1/2
f 77/5/3 64/54/3 63/5/3
f 64/54/3 77/5/3 78/65/3
f 77/5/4 75/5/4 78/66/4
f 75/5/4 77/5/4 76/67/4
f 75/5/5 64/57/5 78/68/5
f 64/57/5 75/5/5 73/69/5
f 74/2/6 77/3/6 63/11/6
f 77/3/6 74/2/6 76/1/6
f 81/3/1 80/2/1 79/1/1
f 80/3/1 81/2/1 82/1/1
f 83/3/2 81/2/2 79/1/2
f 81/3/2 83/2/2 84/1/2
f 68/59/3 80/5/3 82/70/3
f 80/5/3 68/59/3 66/5/3
f 68/5/4 83/5/4 66/71/4
f 83/5/4 68/5/4 84/72/4
f 83/5/5 80/5/5 66/5/5
f 80/5/5 83/5/5 79/73/5
f 81/2/6 68/3/6 82/11/6
f 68/3/6 81/2/6 84/1/6

usemtl color11

f 6/3/1 8/2/1 5/1/1
f 8/3/1 6/2/1 7/1/1
f 85/3/2 6/2/2 5/1/2
f 6/3/2 85/2/2 86/1/2
f 87/5/3 8/6/3 7/5/3
f 8/6/3 87/5/3 88/74/3
f 87/5/4 85/5/4 88/75/4
f 85/5/4 87/5/4 86/76/4
f 85/5/5 8/9/5 88/77/5
f 8/9/5 85/5/5 5/5/5
f 6/2/6 87/3/6 7/11/6
f 87/3/6 6/2/6 86/1/6
f 90/3/1 57/2/1 89/1/1
f 57/3/1 90/2/1 59/1/1
f 91/3/2 90/2/2 89/1/2
f 90/3/2 91/2/2 92/1/2
f 93/5/3 57/5/3 59/78/3
f 57/5/3 93/5/3 94/79/3
f 93/5/4 91/5/4 94/80/4
f 91/5/4 93/5/4 92/81/4
f 91/5/5 57/58/5 94/82/5
f 57/58/5 91/5/5 89/83/5
f 90/2/6 93/3/6 59/11/6
f 93/3/6 90/2/6 92/1/6
f 96/3/1 79/2/1 95/1/1
f 79/3/1 96/2/1 81/1/1
f 97/3/2 96/2/2 95/1/2
f 96/3/2 97/2/2 98/1/2
f 84/5/3 79/5/3 81/84/3
f 79/5/3 84/5/3 83/85/3
f 84/72/4 97/5/4 83/5/4
f 97/5/4 84/72/4 98/86/4
f 97/5/5 79/73/5 83/5/5
f 79/73/5 97/5/5 95/87/5
f 96/2/6 84/3/6 81/11/6
f 84/3/6 96/2/6 98/1/6
f 98/3/1 99/2/1 97/1/1
f 99/3/1 98/2/1 100/1/1
f 101/3/2 98/2/2 97/1/2
f 98/3/2 101/2/2 102/1/2
f 103/5/3 99/5/3 100/88/3
f 99/5/3 103/5/3 104/89/3
f 103/5/4 101/5/4 104/90/4
f 101/5/4 103/5/4 102/91/4
f 101/5/5 99/5/5 104/92/5
f 99/5/5 101/5/5 97/5/5
f 98/2/6 103/3/6 100/11/6
f 103/3/6 98/2/6 102/1/6
f 106/3/1 51/2/1 105/1/1
f 51/3/1 106/2/1 53/1/1
f 107/3/2 106/2/2 105/1/2
f 106/3/2 107/2/2 108/1/2
f 56/5/3 51/5/3 53/93/3
f 51/5/3 56/5/3 55/94/3
f 56/51/4 107/5/4 55/5/4
f 107/5/4 56/51/4 108/95/4
f 107/5/5 51/52/5 55/5/5
f 51/52/5 107/5/5 105/96/5
f 106/2/6 56/3/6 53/11/6
f 56/3/6 106/2/6 108/1/6
f 108/3/1 109/2/1 107/1/1
f 109/3/1 108/2/1 110/1/1
f 9/3/2 108/2/2 107/1/2
f 108/3/2 9/2/2 11/1/2
f 111/5/3 109/5/3 110/97/3
f 109/5/3 111/5/3 112/98/3
f 111/5/4 9/5/4 112/99/4
f 9/5/4 111/5/4 11/100/4
f 9/17/5 109/5/5 112/101/5
f 109/5/5 9/17/5 107/5/5
f 108/2/6 111/3/6 110/11/6
f 111/3/6 108/2/6 11/1/6
f 98/3/1 65/2/1 97/1/1
f 65/3/1 98/2/1 67/1/1
f 101/3/2 98/2/2 97/1/2
f 98/3/2 101/2/2 102/1/2
f 70/5/3 65/5/3 67/102/3
f 65/5/3 70/5/3 69/103/3
f 70/62/4 101/5/4 69/5/4
f 101/5/4 70/62/4 102/91/4
f 101/5/5 65/64/5 69/5/5
f 65/64/5 101/5/5 97/5/5
f 98/2/6 70/3/6 67/11/6
f 70/3/6 98/2/6 102/1/6
f 108/3/1 39/2/1 107/1/1
f 39/3/1 108/2/1 41/1/1
f 113/3/2 108/2/2 107/1/2
f 108/3/2 113/2/2 114/1/2
f 30/27/3 39/5/3 41/104/3
f 39/5/3 30/27/3 28/5/3
f 30/41/4 113/5/4 28/5/4
f 113/5/4 30/41/4 114/105/4
f 113/5/5 39/43/5 28/5/5
f 39/43/5 113/5/5 107/5/5
f 108/2/6 30/3/6 41/11/6
f 30/3/6 108/2/6 114/1/6
f 114/3/1 115/2/1 113/1/1
f 115/3/1 114/2/1 116/1/1
f 9/3/2 114/2/2 113/1/2
f 114/3/2 9/2/2 11/1/2
f 111/5/3 115/5/3 116/106/3
f 115/5/3 111/5/3 112/98/3
f 111/5/4 9/5/4 112/99/4
f 9/5/4 111/5/4 11/100/4
f 9/17/5 115/5/5 112/101/5
f 115/5/5 9/17/5 113/5/5
f 114/2/6 111/3/6 116/11/6
f 111/3/6 114/2/6 11/1/6
f 116/3/1 27/2/1 115/1/1
f 27/3/1 116/2/1 29/1/1
f 112/3/2 116/2/2 115/1/2
f 116/3/2 112/2/2 111/1/2
f 12/12/3 27/5/3 29/107/3
f 27/5/3 12/12/3 10/5/3
f 12/30/4 112/99/4 10/5/4
f 112/99/4 12/30/4 111/5/4
f 112/101/5 27/32/5 10/5/5
f 27/32/5 112/101/5 115/5/5
f 116/2/6 12/3/6 29/11/6
f 12/3/6 116/2/6 111/1/6
f 24/3/1 26/2/1 23/1/1
f 26/3/1 24/2/1 25/1/1
f 88/3/2 24/2/2 23/1/2
f 24/3/2 88/2/2 87/1/2
f 117/5/3 26/23/3 25/5/3
f 26/23/3 117/5/3 118/108/3
f 117/5/4 88/75/4 118/109/4
f 88/75/4 117/5/4 87/5/4
f 88/77/5 26/26/5 118/110/5
f 26/26/5 88/77/5 23/5/5
f 24/2/6 117/3/6 25/11/6
f 117/3/6 24/2/6 87/1/6
f 36/3/1 45/2/1 35/1/1
f 45/3/1 36/2/1 46/1/1
f 118/3/2 36/2/2 35/1/2
f 36/3/2 118/2/2 117/1/2
f 48/5/3 45/5/3 46/111/3
f 45/5/3 48/5/3 47/112/3
f 48/46/4 118/109/4 47/5/4
f 118/109/4 48/46/4 117/5/4
f 118/110/5 45/48/5 47/5/5
f 45/48/5 118/110/5 35/5/5
f 36/2/6 48/3/6 46/11/6
f 48/3/6 36/2/6 117/1/6
f 62/3/1 73/2/1 61/1/1
f 73/3/1 62/2/1 74/1/1
f 94/3/2 62/2/2 61/1/2
f 62/3/2 94/2/2 93/1/2
f 76/5/3 73/5/3 74/113/3
f 73/5/3 76/5/3 75/114/3
f 76/67/4 94/80/4 75/5/4
f 94/80/4 76/67/4 93/5/4
f 94/82/5 73/69/5 75/5/5
f 73/69/5 94/82/5 61/5/5
f 62/2/6 76/3/6 74/11/6
f 76/3/6 62/2/6 93/1/6
f 114/3/1 115/2/1 113/1/1
f 115/3/1 114/2/1 116/1/1
f 9/3/2 114/2/2 113/1/2
f 114/3/2 9/2/2 11/1/2
f 111/5/3 115/5/3 116/106/3
f 115/5/3 111/5/3 112/98/3
f 111/5/4 9/5/4 112/99/4
f 9/5/4 111/5/4 11/100/4
f 9/17/5 115/5/5 112/101/5
f 115/5/5 9/17/5 113/5/5
f 114/2/6 111/3/6 116/11/6
f 111/3/6 114/2/6 11/1/6

usemtl color15

f 86/3/1 119/2/1 85/1/1
f 119/3/1 86/2/1 120/1/1
f 89/3/2 86/2/2 85/1/2
f 86/3/2 89/2/2 90/1/2
f 121/5/3 119/5/3 120/115/3
f 119/5/3 121/5/3 122/116/3
f 121/5/4 89/5/4 122/117/4
f 89/5/4 121/5/4 90/118/4
f 89/83/5 119/5/5 122/119/5
f 119/5/5 89/83/5 85/5/5
f 86/2/6 121/3/6 120/11/6
f 121/3/6 86/2/6 90/1/6
f 92/3/1 75/2/1 91/1/1
f 75/3/1 92/2/1 76/1/1
f 95/3/2 92/2/2 91/1/2
f 92/3/2 95/2/2 96/1/2
f 81/84/3 75/114/3 76/5/3
f 75/114/3 81/84/3 79/5/3
f 81/5/4 95/5/4 79/120/4
f 95/5/4 81/5/4 96/121/4
f 95/87/5 75/5/5 79/73/5
f 75/5/5 95/87/5 91/5/5
f 92/2/6 81/3/6 76/11/6
f 81/3/6 92/2/6 96/1/6
f 102/3/1 69/2/1 101/1/1
f 69/3/1 102/2/1 70/1/1
f 123/3/2 102/2/2 101/1/2
f 102/3/2 123/2/2 124/1/2
f 125/5/3 69/103/3 70/5/3
f 69/103/3 125/5/3 126/122/3
f 125/5/4 123/5/4 126/123/4
f 123/5/4 125/5/4 124/124/4
f 123/5/5 69/5/5 126/125/5
f 69/5/5 123/5/5 101/5/5
f 102/2/6 125/3/6 70/11/6
f 125/3/6 102/2/6 124/1/6
f 124/3/1 127/2/1 123/1/1
f 127/3/1 124/2/1 128/1/1
f 105/3/2 124/2/2 123/1/2
f 124/3/2 105/2/2 106/1/2
f 129/5/3 127/5/3 128/126/3
f 127/5/3 129/5/3 130/127/3
f 129/5/4 105/5/4 130/128/4
f 105/5/4 129/5/4 106/129/4
f 105/96/5 127/5/5 130/130/5
f 127/5/5 105/96/5 123/5/5
f 124/2/6 129/3/6 128/11/6
f 129/3/6 124/2/6 106/1/6
f 124/3/1 131/2/1 123/1/1
f 131/3/1 124/2/1 132/1/1
f 105/3/2 124/2/2 123/1/2
f 124/3/2 105/2/2 106/1/2
f 133/5/3 131/5/3 132/131/3
f 131/5/3 133/5/3 134/132/3
f 133/5/4 105/5/4 134/133/4
f 105/5/4 133/5/4 106/129/4
f 105/96/5 131/5/5 134/134/5
f 131/5/5 105/96/5 123/5/5
f 124/2/6 133/3/6 132/11/6
f 133/3/6 124/2/6 106/1/6
f 137/3/1 136/2/1 135/1/1
f 136/3/1 137/2/1 138/1/1
f 122/3/2 137/2/2 135/1/2
f 137/3/2 122/2/2 121/1/2
f 59/78/3 136/5/3 138/135/3
f 136/5/3 59/78/3 57/5/3
f 59/5/4 122/117/4 57/136/4
f 122/117/4 59/5/4 121/5/4
f 122/119/5 136/5/5 57/58/5
f 136/5/5 122/119/5 135/137/5
f 137/2/6 59/3/6 138/11/6
f 59/3/6 137/2/6 121/1/6

usemtl color13

f 120/3/1 139/2/1 119/1/1
f 139/3/1 120/2/1 140/1/1
f 135/3/2 120/2/2 119/1/2
f 120/3/2 135/2/2 137/1/2
f 141/5/3 139/5/3 140/138/3
f 139/5/3 141/5/3 142/139/3
f 141/5/4 135/5/4 142/140/4
f 135/5/4 141/5/4 137/141/4
f 135/137/5 139/5/5 142/142/5
f 139/5/5 135/137/5 119/5/5
f 120/2/6 141/3/6 140/11/6
f 141/3/6 120/2/6 137/1/6
f 132/3/1 143/2/1 131/1/1
f 143/3/1 132/2/1 144/1/1
f 134/3/2 132/2/2 131/1/2
f 132/3/2 134/2/2 133/1/2
f 145/5/3 143/5/3 144/143/3
f 143/5/3 145/5/3 146/144/3
f 145/5/4 134/133/4 146/145/4
f 134/133/4 145/5/4 133/5/4
f 134/134/5 143/5/5 146/146/5
f 143/5/5 134/134/5 131/5/5
f 132/2/6 145/3/6 144/11/6
f 145/3/6 132/2/6 133/1/6
f 138/3/1 142/2/1 136/1/1
f 142/3/1 138/2/1 141/1/1
f 57/3/2 138/2/2 136/1/2
f 138/3/2 57/2/2 59/1/2
f 60/53/3 142/139/3 141/5/3
f 142/139/3 60/53/3 58/5/3
f 60/5/4 57/136/4 58/147/4
f 57/136/4 60/5/4 59/5/4
f 57/58/5 142/142/5 58/5/5
f 142/142/5 57/58/5 136/5/5
f 138/2/6 60/3/6 141/11/6
f 60/3/6 138/2/6 59/1/6
f 70/3/1 72/2/1 69/1/1
f 72/3/1 70/2/1 71/1/1
f 126/3/2 70/2/2 69/1/2
f 70/3/2 126/2/2 125/1/2
f 144/143/3 72/60/3 71/5/3
f 72/60/3 144/143/3 143/5/3
f 144/5/4 126/123/4 143/148/4
f 126/123/4 144/5/4 125/5/4
f 126/125/5 72/63/5 143/5/5
f 72/63/5 126/125/5 69/5/5
f 70/2/6 144/3/6 71/11/6
f 144/3/6 70/2/6 125/1/6
f 76/3/1 78/2/1 75/1/1
f 78/3/1 76/2/1 77/1/1
f 79/3/2 76/2/2 75/1/2
f 76/3/2 79/2/2 81/1/2
f 82/70/3 78/65/3 77/5/3
f 78/65/3 82/70/3 80/5/3
f 82/5/4 79/120/4 80/149/4
f 79/120/4 82/5/4 81/5/4
f 79/73/5 78/68/5 80/5/5
f 78/68/5 79/73/5 75/5/5
f 76/2/6 82/3/6 77/11/6
f 82/3/6 76/2/6 81/1/6

usemtl color4

f 60/3/1 147/2/1 58/1/1
f 147/3/1 60/2/1 148/1/1
f 72/3/2 60/2/2 58/1/2
f 60/3/2 72/2/2 71/1/2
f 149/5/3 147/5/3 148/150/3
f 147/5/3 149/5/3 150/151/3
f 149/5/4 72/61/4 150/152/4
f 72/61/4 149/5/4 71/5/4
f 72/63/5 147/5/5 150/153/5
f 147/5/5 72/63/5 58/5/5
f 60/2/6 149/3/6 148/11/6
f 149/3/6 60/2/6 71/1/6
f 153/3/1 152/2/1 151/1/1
f 152/3/1 153/2/1 154/1/1
f 155/3/2 153/2/2 151/1/2
f 153/3/2 155/2/2 156/1/2
f 157/5/3 152/5/3 154/154/3
f 152/5/3 157/5/3 158/155/3
f 157/5/4 155/5/4 158/156/4
f 155/5/4 157/5/4 156/157/4
f 155/5/5 152/5/5 158/158/5
f 152/5/5 155/5/5 151/159/5
f 153/2/6 157/3/6 154/11/6
f 157/3/6 153/2/6 156/1/6
f 161/3/1 160/2/1 159/1/1
f 160/3/1 161/2/1 162/1/1
f 163/3/2 161/2/2 159/1/2
f 161/3/2 163/2/2 164/1/2
f 165/5/3 160/5/3 162/160/3
f 160/5/3 165/5/3 166/161/3
f 165/5/4 163/5/4 166/162/4
f 163/5/4 165/5/4 164/163/4
f 163/5/5 160/5/5 166/164/5
f 160/5/5 163/5/5 159/165/5
f 161/2/6 165/3/6 162/11/6
f 165/3/6 161/2/6 164/1/6
f 169/3/1 168/2/1 167/1/1
f 168/3/1 169/2/1 170/1/1
f 171/3/2 169/2/2 167/1/2
f 169/3/2 171/2/2 172/1/2
f 173/5/3 168/5/3 170/166/3
f 168/5/3 173/5/3 174/167/3
f 173/5/4 171/5/4 174/168/4
f 171/5/4 173/5/4 172/169/4
f 171/5/5 168/5/5 174/170/5
f 168/5/5 171/5/5 167/171/5
f 169/2/6 173/3/6 170/11/6
f 173/3/6 169/2/6 172/1/6
f 177/3/1 176/2/1 175/1/1
f 176/3/1 177/2/1 178/1/1
f 179/3/2 177/2/2 175/1/2
f 177/3/2 179/2/2 180/1/2
f 181/5/3 176/5/3 178/172/3
f 176/5/3 181/5/3 182/173/3
f 181/5/4 179/5/4 182/174/4
f 179/5/4 181/5/4 180/175/4
f 179/5/5 176/5/5 182/176/5
f 176/5/5 179/5/5 175/177/5
f 177/2/6 181/3/6 178/11/6
f 181/3/6 177/2/6 180/1/6
f 185/3/1 184/2/1 183/1/1
f 184/3/1 185/2/1 186/1/1
f 187/3/2 185/2/2 183/1/2
f 185/3/2 187/2/2 188/1/2
f 189/5/3 184/5/3 186/178/3
f 184/5/3 189/5/3 190/179/3
f 189/5/4 187/5/4 190/180/4
f 187/5/4 189/5/4 188/181/4
f 187/5/5 184/5/5 190/182/5
f 184/5/5 187/5/5 183/183/5
f 185/2/6 189/3/6 186/11/6
f 189/3/6 185/2/6 188/1/6
f 193/3/1 192/2/1 191/1/1
f 192/3/1 193/2/1 194/1/1
f 195/3/2 193/2/2 191/1/2
f 193/3/2 195/2/2 196/1/2
f 197/5/3 192/5/3 194/184/3
f 192/5/3 197/5/3 198/185/3
f 197/5/4 195/5/4 198/186/4
f 195/5/4 197/5/4 196/187/4
f 195/5/5 192/5/5 198/188/5
f 192/5/5 195/5/5 191/189/5
f 193/2/6 197/3/6 194/11/6
f 197/3/6 193/2/6 196/1/6
f 201/3/1 200/2/1 199/1/1
f 200/3/1 201/2/1 202/1/1
f 203/3/2 201/2/2 199/1/2
f 201/3/2 203/2/2 204/1/2
f 205/5/3 200/5/3 202/190/3
f 200/5/3 205/5/3 206/191/3
f 205/5/4 203/5/4 206/192/4
f 203/5/4 205/5/4 204/193/4
f 203/5/5 200/5/5 206/194/5
f 200/5/5 203/5/5 199/195/5
f 201/2/6 205/3/6 202/11/6
f 205/3/6 201/2/6 204/1/6

usemtl color5

f 208/3/1 167/2/1 207/1/1
f 167/3/1 208/2/1 169/1/1
f 209/3/2 208/2/2 207/1/2
f 208/3/2 209/2/2 210/1/2
f 180/5/3 167/5/3 169/196/3
f 167/5/3 180/5/3 179/197/3
f 180/175/4 209/5/4 179/5/4
f 209/5/4 180/175/4 210/198/4
f 209/5/5 167/171/5 179/5/5
f 167/171/5 209/5/5 207/199/5
f 208/2/6 180/3/6 169/11/6
f 180/3/6 208/2/6 210/1/6
f 212/3/1 151/2/1 211/1/1
f 151/3/1 212/2/1 153/1/1
f 213/3/2 212/2/2 211/1/2
f 212/3/2 213/2/2 214/1/2
f 156/5/3 151/5/3 153/200/3
f 151/5/3 156/5/3 155/201/3
f 156/157/4 213/5/4 155/5/4
f 213/5/4 156/157/4 214/202/4
f 213/5/5 151/159/5 155/5/5
f 151/159/5 213/5/5 211/203/5
f 212/2/6 156/3/6 153/11/6
f 156/3/6 212/2/6 214/1/6
f 216/3/1 159/2/1 215/1/1
f 159/3/1 216/2/1 161/1/1
f 217/3/2 216/2/2 215/1/2
f 216/3/2 217/2/2 218/1/2
f 164/5/3 159/5/3 161/204/3
f 159/5/3 164/5/3 163/205/3
f 164/163/4 217/5/4 163/5/4
f 217/5/4 164/163/4 218/206/4
f 217/5/5 159/165/5 163/5/5
f 159/165/5 217/5/5 215/207/5
f 216/2/6 164/3/6 161/11/6
f 164/3/6 216/2/6 218/1/6
f 172/3/1 183/2/1 171/1/1
f 183/3/1 172/2/1 185/1/1
f 175/3/2 172/2/2 171/1/2
f 172/3/2 175/2/2 177/1/2
f 196/5/3 183/5/3 185/208/3
f 183/5/3 196/5/3 195/209/3
f 196/187/4 175/5/4 195/5/4
f 175/5/4 196/187/4 177/210/4
f 175/177/5 183/183/5 195/5/5
f 183/183/5 175/177/5 171/5/5
f 172/2/6 196/3/6 185/11/6
f 196/3/6 172/2/6 177/1/6
f 188/3/1 199/2/1 187/1/1
f 199/3/1 188/2/1 201/1/1
f 191/3/2 188/2/2 187/1/2
f 188/3/2 191/2/2 193/1/2
f 204/5/3 199/5/3 201/211/3
f 199/5/3 204/5/3 203/212/3
f 204/193/4 191/5/4 203/5/4
f 191/5/4 204/193/4 193/213/4
f 191/189/5 199/195/5 203/5/5
f 199/195/5 191/189/5 187/5/5
f 188/2/6 204/3/6 201/11/6
f 204/3/6 188/2/6 193/1/6

