# Created by Kenney (www.kenney.nl)

mtllib Necklace.mtl

v 5 19 -0.5
v 5 18 -0.5
v 5 19 0.5
v 5 18 0.5
v -5 19 -0.5
v -5 19 0.5
v -5 18 0.5
v -5 18 -0.5
v 4 19 -0.5
v 4 19 0.5
v 4 18 0.5
v 4 18 -0.5
v 6 18 -0.5
v 6 17 -0.5
v 6 18 0.5
v 6 17 0.5
v 5 17 0.5
v 5 17 -0.5
v -5 17 -0.5
v -5 17 0.5
v -6 18 -0.5
v -6 18 0.5
v -6 17 0.5
v -6 17 -0.5
v 7 17 -0.5
v 7 16 -0.5
v 7 17 0.5
v 7 16 0.5
v 6 16 0.5
v 6 16 -0.5
v -6 16 -0.5
v -6 16 0.5
v -7 17 -0.5
v -7 17 0.5
v -7 16 0.5
v -7 16 -0.5
v 8 16 -0.5
v 8 14 -0.5
v 8 16 0.5
v 8 14 0.5
v 7 14 0.5
v 7 14 -0.5
v -7 14 -0.5
v -7 14 0.5
v -8 16 -0.5
v -8 16 0.5
v -8 14 0.5
v -8 14 -0.5
v 9 14 -0.5
v 9 13 -0.5
v 9 14 0.5
v 9 13 0.5
v 8 13 0.5
v 8 13 -0.5
v -8 13 -0.5
v -8 13 0.5
v -9 14 -0.5
v -9 14 0.5
v -9 13 0.5
v -9 13 -0.5
v 10 12 -0.5
v 10 11 -0.5
v 10 12 0.5
v 10 11 0.5
v 9 12 -0.5
v 9 12 0.5
v 9 11 0.5
v 9 11 -0.5
v -9 12 -0.5
v -9 11 -0.5
v -9 12 0.5
v -9 11 0.5
v -10 12 -0.5
v -10 12 0.5
v -10 11 0.5
v -10 11 -0.5
v 11 10 -0.5
v 11 -3 -0.5
v 11 10 0.5
v 11 -3 0.5
v 10 10 -0.5
v 10 10 0.5
v 10 -3 0.5
v 10 -3 -0.5
v -10 10 -0.5
v -10 -3 -0.5
v -10 10 0.5
v -10 -3 0.5
v -11 10 -0.5
v -11 10 0.5
v -11 -3 0.5
v -11 -3 -0.5
v 10 -6 -0.5
v 10 -7 -0.5
v 10 -6 0.5
v 10 -7 0.5
v 9 -6 -0.5
v 9 -6 0.5
v 9 -7 0.5
v 9 -7 -0.5
v -9 -6 -0.5
v -9 -7 -0.5
v -9 -6 0.5
v -9 -7 0.5
v -10 -6 -0.5
v -10 -6 0.5
v -10 -7 0.5
v -10 -7 -0.5
v 9 -8 -0.5
v 9 -8 0.5
v 8 -7 -0.5
v 8 -7 0.5
v 8 -8 0.5
v 8 -8 -0.5
v -8 -7 -0.5
v -8 -8 -0.5
v -8 -7 0.5
v -8 -8 0.5
v -9 -8 0.5
v -9 -8 -0.5
v 6 -10 -0.5
v 6 -11 -0.5
v 6 -10 0.5
v 6 -11 0.5
v 5 -10 -0.5
v 5 -10 0.5
v 5 -11 0.5
v 5 -11 -0.5
v -5 -10 -0.5
v -5 -11 -0.5
v -5 -10 0.5
v -5 -11 0.5
v -6 -10 -0.5
v -6 -10 0.5
v -6 -11 0.5
v -6 -11 -0.5
v 5 -12 -0.5
v 5 -12 0.5
v 4 -11 -0.5
v 4 -11 0.5
v 4 -12 0.5
v 4 -12 -0.5
v -4 -11 -0.5
v -4 -12 -0.5
v -4 -11 0.5
v -4 -12 0.5
v -5 -12 0.5
v -5 -12 -0.5
v 2 -13 -0.5
v 2 -14 -0.5
v 2 -13 0.5
v 2 -14 0.5
v 1 -13 -0.5
v 1 -13 0.5
v 1 -14 0.5
v 1 -14 -0.5
v -1 -13 -0.5
v -1 -14 -0.5
v -1 -13 0.5
v -1 -14 0.5
v -2 -13 -0.5
v -2 -13 0.5
v -2 -14 0.5
v -2 -14 -0.5
v 2 -15 -1
v 2 -16 -1
v 2 -15 1
v 2 -16 1
v 1 -15 -1
v 1 -15 1
v 1 -16 1
v 1 -16 -1
v -1 -16 1
v -1 -15 1
v -1 -15 -1
v -1 -16 -1
v -2 -15 -1
v -2 -15 1
v -2 -16 1
v -2 -16 -1
v 2 -17 1
v 1 -17 1
v 1 -19 1
v -1 -19 1
v -1 -17 1
v -2 -17 1
v 2 -18 1
v 1 -18 1
v -1 -18 1
v -2 -18 1
v 8 12 0.5
v 8 12 -0.5
v -8 12 -0.5
v -8 12 0.5
v 9 10 0.5
v 9 10 -0.5
v -9 10 -0.5
v -9 10 0.5
v 11 -6 -0.5
v 11 -6 0.5
v -11 -6 0.5
v -11 -6 -0.5
v 8 -9 -0.5
v 8 -9 0.5
v 7 -8 -0.5
v 7 -8 0.5
v 7 -9 0.5
v 7 -9 -0.5
v -7 -8 -0.5
v -7 -9 -0.5
v -7 -8 0.5
v -7 -9 0.5
v -8 -9 0.5
v -8 -9 -0.5
v 7 -10 -0.5
v 7 -10 0.5
v 6 -9 -0.5
v 6 -9 0.5
v -6 -9 -0.5
v -6 -9 0.5
v -7 -10 0.5
v -7 -10 -0.5
v 4 -13 -0.5
v 4 -13 0.5
v 3 -12 -0.5
v 3 -12 0.5
v 3 -13 0.5
v 3 -13 -0.5
v -3 -12 -0.5
v -3 -13 -0.5
v -3 -12 0.5
v -3 -13 0.5
v -4 -13 0.5
v -4 -13 -0.5
v 3 -14 -0.5
v 3 -14 0.5
v -3 -14 0.5
v -3 -14 -0.5
v 1 -15 -0.5
v 1 -15 0.5
v -1 -15 0.5
v -1 -15 -0.5
v 2 -19 1
v -2 -19 1
v 2 -20 1
v 1 -20 1
v -1 -20 1
v -2 -20 1
v 2 -20 -1
v 2 -21 -1
v 2 -21 1
v 1 -20 -1
v 1 -21 1
v 1 -21 -1
v -1 -21 1
v -1 -20 -1
v -1 -21 -1
v -2 -20 -1
v -2 -21 1
v -2 -21 -1
v 2 -17 -1
v 1 -17 -1
v -1 -17 -1
v -2 -17 -1
v 2 -19 -1
v 1 -19 -1
v -1 -19 -1
v -2 -19 -1
v 2 -18 -1
v 1 -18 -1
v -1 -18 -1
v -2 -18 -1

vn 1 0 0
vn 0 1 0
vn 0 -1 0
vn -1 0 0
vn 0 0 -1
vn 0 0 1

vt -19.68504 19.68504
vt 19.68504 19.68504
vt -19.68504 -19.68504
vt 0 NaN
vt 0 0
vt 0 NaN
vt 0 NaN
vt 0 NaN
vt 0 NaN
vt 0 NaN
vt 19.68504 -19.68504
vt 0 NaN
vt 0 NaN
vt 0 NaN
vt 0 NaN
vt 0 NaN
vt 0 NaN
vt 0 NaN
vt 0 NaN
vt 0 NaN
vt 0 NaN
vt 0 NaN
vt 0 NaN
vt 0 NaN
vt 0 NaN
vt 0 NaN
vt 0 NaN
vt 0 NaN
vt 0 NaN
vt 0 NaN
vt 0 NaN
vt 0 NaN
vt 0 NaN
vt 0 NaN
vt 0 NaN
vt 0 NaN
vt 0 NaN
vt 0 NaN
vt 0 NaN
vt 0 NaN
vt 0 NaN
vt 0 NaN
vt 0 NaN
vt 0 NaN
vt 0 NaN
vt 0 NaN
vt 0 NaN
vt 0 NaN
vt 0 NaN
vt 0 NaN
vt 0 NaN
vt 0 NaN
vt 0 NaN
vt 0 NaN
vt 0 NaN
vt 0 NaN
vt 0 NaN
vt 0 NaN
vt 0 NaN
vt 0 NaN
vt 0 NaN
vt 0 NaN
vt 0 NaN
vt 0 NaN
vt 0 NaN
vt 0 NaN
vt 0 NaN
vt 0 NaN
vt 0 NaN
vt 0 NaN
vt 0 NaN
vt 0 NaN
vt 0 NaN
vt 0 NaN
vt 0 NaN
vt 0 NaN
vt 0 NaN
vt 0 NaN
vt 0 NaN
vt 0 NaN
vt 0 NaN
vt 0 NaN
vt 0 NaN
vt 0 NaN
vt 0 NaN
vt 0 NaN
vt 0 NaN
vt 0 NaN
vt 0 NaN
vt 0 NaN
vt 0 NaN
vt 0 NaN
vt 0 NaN
vt 0 NaN
vt 0 NaN
vt 0 NaN
vt 0 NaN
vt 0 NaN
vt 0 NaN
vt 0 NaN
vt 0 NaN
vt 0 NaN
vt 0 NaN
vt 0 NaN
vt 0 NaN
vt 0 NaN
vt 0 NaN
vt 0 NaN
vt 0 NaN
vt 0 NaN
vt 0 NaN
vt 0 NaN
vt 0 NaN
vt 0 NaN
vt 0 NaN
vt 0 NaN
vt 0 NaN
vt 0 NaN
vt 0 NaN
vt 0 NaN
vt 0 NaN
vt 0 NaN
vt 0 NaN
vt 0 NaN
vt 0 NaN
vt 0 NaN
vt 0 NaN
vt 0 NaN
vt 0 NaN
vt 0 NaN
vt 0 NaN
vt 0 NaN
vt 0 NaN
vt 0 NaN
vt 0 NaN
vt 0 NaN
vt 0 NaN
vt 0 NaN
vt 0 NaN
vt 0 NaN
vt 0 NaN
vt 0 NaN
vt 0 NaN
vt 0 NaN
vt 0 NaN
vt 0 NaN
vt 0 NaN
vt 0 NaN
vt 0 NaN
vt 0 NaN
vt 0 NaN
vt 0 NaN
vt 0 NaN
vt 0 NaN
vt 0 NaN
vt 0 NaN
vt 0 NaN
vt 0 NaN
vt 0 NaN
vt 0 NaN
vt 0 NaN
vt 0 NaN
vt 0 NaN
vt 0 NaN
vt 0 NaN
vt 0 NaN
vt 0 NaN
vt 0 NaN
vt 0 NaN
vt 0 NaN
vt 0 NaN
vt 0 NaN
vt 0 NaN
vt 0 NaN
vt 0 NaN
vt 0 NaN
vt 0 NaN
vt 0 NaN
vt 0 NaN
vt 0 NaN
vt 0 NaN
vt 0 NaN
vt 0 NaN
vt 0 NaN
vt 0 NaN
vt 0 NaN
vt 0 NaN
vt 0 NaN
vt 0 NaN
vt 0 NaN
vt 0 NaN
vt 0 NaN
vt 0 NaN
vt 0 NaN
vt 0 NaN
vt 0 NaN
vt 0 NaN
vt 0 NaN
vt 0 NaN
vt 0 NaN
vt 0 NaN
vt 0 NaN
vt 0 NaN
vt 0 NaN
vt 0 NaN
vt 0 NaN
vt 0 NaN
vt 0 NaN
vt 0 NaN
vt 0 NaN
vt 0 NaN
vt 0 NaN
vt 0 NaN
vt 0 NaN
vt 0 NaN
vt 0 NaN
vt 0 NaN
vt 0 NaN
vt 0 NaN
vt 0 NaN
vt 0 NaN
vt 0 NaN
vt 0 NaN
vt 0 NaN
vt 0 NaN
vt 0 NaN
vt 0 NaN
vt 0 NaN
vt 0 NaN
vt 0 NaN
vt 0 NaN
vt 0 NaN
vt 0 NaN
vt 0 NaN
vt 0 NaN
vt 0 NaN
vt 0 NaN
vt 0 NaN
vt 0 NaN
vt 0 NaN
vt 0 NaN
vt 0 NaN
vt 0 NaN
vt 0 NaN
vt 0 NaN
vt 0 NaN
vt 0 NaN
vt 0 NaN
vt 0 NaN
vt 0 NaN
vt 0 NaN
vt 0 NaN
vt 0 NaN
vt 0 NaN
vt 0 NaN
vt 0 NaN
vt 0 NaN
vt 0 NaN
vt 0 NaN
vt 0 NaN
vt 0 NaN
vt 0 NaN
vt 0 NaN

usemtl color5

f 3/3/1 2/2/1 1/1/1
f 2/3/1 3/2/1 4/1/1
f 5/3/2 3/2/2 1/1/2
f 3/3/2 5/2/2 6/1/2
f 7/5/3 2/5/3 4/4/3
f 2/5/3 7/5/3 8/6/3
f 7/5/4 5/5/4 8/7/4
f 5/5/4 7/5/4 6/8/4
f 5/5/5 2/5/5 8/9/5
f 2/5/5 5/5/5 1/10/5
f 3/2/6 7/3/6 4/11/6
f 7/3/6 3/2/6 6/1/6
f 3/3/1 2/2/1 1/1/1
f 2/3/1 3/2/1 4/1/1
f 9/3/2 3/2/2 1/1/2
f 3/3/2 9/2/2 10/1/2
f 11/5/3 2/5/3 4/4/3
f 2/5/3 11/5/3 12/12/3
f 11/5/4 9/5/4 12/13/4
f 9/5/4 11/5/4 10/14/4
f 9/5/5 2/5/5 12/15/5
f 2/5/5 9/5/5 1/10/5
f 3/2/6 11/3/6 4/11/6
f 11/3/6 3/2/6 10/1/6
f 15/3/1 14/2/1 13/1/1
f 14/3/1 15/2/1 16/1/1
f 2/3/2 15/2/2 13/1/2
f 15/3/2 2/2/2 4/1/2
f 17/5/3 14/5/3 16/16/3
f 14/5/3 17/5/3 18/17/3
f 17/5/4 2/5/4 18/18/4
f 2/5/4 17/5/4 4/19/4
f 2/5/5 14/5/5 18/20/5
f 14/5/5 2/5/5 13/21/5
f 15/2/6 17/3/6 16/11/6
f 17/3/6 15/2/6 4/1/6
f 7/3/1 19/2/1 8/1/1
f 19/3/1 7/2/1 20/1/1
f 21/3/2 7/2/2 8/1/2
f 7/3/2 21/2/2 22/1/2
f 23/5/3 19/5/3 20/22/3
f 19/5/3 23/5/3 24/23/3
f 23/5/4 21/5/4 24/24/4
f 21/5/4 23/5/4 22/25/4
f 21/5/5 19/5/5 24/26/5
f 19/5/5 21/5/5 8/9/5
f 7/2/6 23/3/6 20/11/6
f 23/3/6 7/2/6 22/1/6
f 27/3/1 26/2/1 25/1/1
f 26/3/1 27/2/1 28/1/1
f 14/3/2 27/2/2 25/1/2
f 27/3/2 14/2/2 16/1/2
f 29/5/3 26/5/3 28/27/3
f 26/5/3 29/5/3 30/28/3
f 29/5/4 14/5/4 30/29/4
f 14/5/4 29/5/4 16/30/4
f 14/5/5 26/5/5 30/31/5
f 26/5/5 14/5/5 25/32/5
f 27/2/6 29/3/6 28/11/6
f 29/3/6 27/2/6 16/1/6
f 23/3/1 31/2/1 24/1/1
f 31/3/1 23/2/1 32/1/1
f 33/3/2 23/2/2 24/1/2
f 23/3/2 33/2/2 34/1/2
f 35/5/3 31/5/3 32/33/3
f 31/5/3 35/5/3 36/34/3
f 35/5/4 33/5/4 36/35/4
f 33/5/4 35/5/4 34/36/4
f 33/5/5 31/5/5 36/37/5
f 31/5/5 33/5/5 24/26/5
f 23/2/6 35/3/6 32/11/6
f 35/3/6 23/2/6 34/1/6
f 39/3/1 38/2/1 37/1/1
f 38/3/1 39/2/1 40/1/1
f 26/3/2 39/2/2 37/1/2
f 39/3/2 26/2/2 28/1/2
f 41/5/3 38/5/3 40/38/3
f 38/5/3 41/5/3 42/39/3
f 41/5/4 26/5/4 42/40/4
f 26/5/4 41/5/4 28/41/4
f 26/5/5 38/5/5 42/42/5
f 38/5/5 26/5/5 37/43/5
f 39/2/6 41/3/6 40/11/6
f 41/3/6 39/2/6 28/1/6
f 35/3/1 43/2/1 36/1/1
f 43/3/1 35/2/1 44/1/1
f 45/3/2 35/2/2 36/1/2
f 35/3/2 45/2/2 46/1/2
f 47/5/3 43/5/3 44/44/3
f 43/5/3 47/5/3 48/45/3
f 47/5/4 45/5/4 48/46/4
f 45/5/4 47/5/4 46/47/4
f 45/5/5 43/5/5 48/48/5
f 43/5/5 45/5/5 36/37/5
f 35/2/6 47/3/6 44/11/6
f 47/3/6 35/2/6 46/1/6
f 51/3/1 50/2/1 49/1/1
f 50/3/1 51/2/1 52/1/1
f 38/3/2 51/2/2 49/1/2
f 51/3/2 38/2/2 40/1/2
f 53/5/3 50/5/3 52/49/3
f 50/5/3 53/5/3 54/50/3
f 53/5/4 38/5/4 54/51/4
f 38/5/4 53/5/4 40/52/4
f 38/5/5 50/5/5 54/53/5
f 50/5/5 38/5/5 49/54/5
f 51/2/6 53/3/6 52/11/6
f 53/3/6 51/2/6 40/1/6
f 47/3/1 55/2/1 48/1/1
f 55/3/1 47/2/1 56/1/1
f 57/3/2 47/2/2 48/1/2
f 47/3/2 57/2/2 58/1/2
f 59/5/3 55/5/3 56/55/3
f 55/5/3 59/5/3 60/56/3
f 59/5/4 57/5/4 60/57/4
f 57/5/4 59/5/4 58/58/4
f 57/5/5 55/5/5 60/59/5
f 55/5/5 57/5/5 48/48/5
f 47/2/6 59/3/6 56/11/6
f 59/3/6 47/2/6 58/1/6
f 63/3/1 62/2/1 61/1/1
f 62/3/1 63/2/1 64/1/1
f 65/3/2 63/2/2 61/1/2
f 63/3/2 65/2/2 66/1/2
f 67/5/3 62/5/3 64/60/3
f 62/5/3 67/5/3 68/61/3
f 67/5/4 65/5/4 68/62/4
f 65/5/4 67/5/4 66/63/4
f 65/5/5 62/5/5 68/64/5
f 62/5/5 65/5/5 61/65/5
f 63/2/6 67/3/6 64/11/6
f 67/3/6 63/2/6 66/1/6
f 71/3/1 70/2/1 69/1/1
f 70/3/1 71/2/1 72/1/1
f 73/3/2 71/2/2 69/1/2
f 71/3/2 73/2/2 74/1/2
f 75/5/3 70/5/3 72/66/3
f 70/5/3 75/5/3 76/67/3
f 75/5/4 73/5/4 76/68/4
f 73/5/4 75/5/4 74/69/4
f 73/5/5 70/5/5 76/70/5
f 70/5/5 73/5/5 69/71/5
f 71/2/6 75/3/6 72/11/6
f 75/3/6 71/2/6 74/1/6
f 79/3/1 78/2/1 77/1/1
f 78/3/1 79/2/1 80/1/1
f 81/3/2 79/2/2 77/1/2
f 79/3/2 81/2/2 82/1/2
f 83/5/3 78/5/3 80/72/3
f 78/5/3 83/5/3 84/73/3
f 83/5/4 81/5/4 84/74/4
f 81/5/4 83/5/4 82/75/4
f 81/5/5 78/5/5 84/76/5
f 78/5/5 81/5/5 77/77/5
f 79/2/6 83/3/6 80/11/6
f 83/3/6 79/2/6 82/1/6
f 87/3/1 86/2/1 85/1/1
f 86/3/1 87/2/1 88/1/1
f 89/3/2 87/2/2 85/1/2
f 87/3/2 89/2/2 90/1/2
f 91/5/3 86/5/3 88/78/3
f 86/5/3 91/5/3 92/79/3
f 91/5/4 89/5/4 92/80/4
f 89/5/4 91/5/4 90/81/4
f 89/5/5 86/5/5 92/82/5
f 86/5/5 89/5/5 85/83/5
f 87/2/6 91/3/6 88/11/6
f 91/3/6 87/2/6 90/1/6
f 95/3/1 94/2/1 93/1/1
f 94/3/1 95/2/1 96/1/1
f 97/3/2 95/2/2 93/1/2
f 95/3/2 97/2/2 98/1/2
f 99/5/3 94/5/3 96/84/3
f 94/5/3 99/5/3 100/85/3
f 99/5/4 97/5/4 100/86/4
f 97/5/4 99/5/4 98/87/4
f 97/5/5 94/5/5 100/88/5
f 94/5/5 97/5/5 93/89/5
f 95/2/6 99/3/6 96/11/6
f 99/3/6 95/2/6 98/1/6
f 103/3/1 102/2/1 101/1/1
f 102/3/1 103/2/1 104/1/1
f 105/3/2 103/2/2 101/1/2
f 103/3/2 105/2/2 106/1/2
f 107/5/3 102/5/3 104/90/3
f 102/5/3 107/5/3 108/91/3
f 107/5/4 105/5/4 108/92/4
f 105/5/4 107/5/4 106/93/4
f 105/5/5 102/5/5 108/94/5
f 102/5/5 105/5/5 101/95/5
f 103/2/6 107/3/6 104/11/6
f 107/3/6 103/2/6 106/1/6
f 99/3/1 109/2/1 100/1/1
f 109/3/1 99/2/1 110/1/1
f 111/3/2 99/2/2 100/1/2
f 99/3/2 111/2/2 112/1/2
f 113/5/3 109/5/3 110/96/3
f 109/5/3 113/5/3 114/97/3
f 113/5/4 111/5/4 114/98/4
f 111/5/4 113/5/4 112/99/4
f 111/5/5 109/5/5 114/100/5
f 109/5/5 111/5/5 100/88/5
f 99/2/6 113/3/6 110/11/6
f 113/3/6 99/2/6 112/1/6
f 117/3/1 116/2/1 115/1/1
f 116/3/1 117/2/1 118/1/1
f 102/3/2 117/2/2 115/1/2
f 117/3/2 102/2/2 104/1/2
f 119/5/3 116/5/3 118/101/3
f 116/5/3 119/5/3 120/102/3
f 119/5/4 102/5/4 120/103/4
f 102/5/4 119/5/4 104/104/4
f 102/5/5 116/5/5 120/105/5
f 116/5/5 102/5/5 115/106/5
f 117/2/6 119/3/6 118/11/6
f 119/3/6 117/2/6 104/1/6
f 123/3/1 122/2/1 121/1/1
f 122/3/1 123/2/1 124/1/1
f 125/3/2 123/2/2 121/1/2
f 123/3/2 125/2/2 126/1/2
f 127/5/3 122/5/3 124/107/3
f 122/5/3 127/5/3 128/108/3
f 127/5/4 125/5/4 128/109/4
f 125/5/4 127/5/4 126/110/4
f 125/5/5 122/5/5 128/111/5
f 122/5/5 125/5/5 121/112/5
f 123/2/6 127/3/6 124/11/6
f 127/3/6 123/2/6 126/1/6
f 131/3/1 130/2/1 129/1/1
f 130/3/1 131/2/1 132/1/1
f 133/3/2 131/2/2 129/1/2
f 131/3/2 133/2/2 134/1/2
f 135/5/3 130/5/3 132/113/3
f 130/5/3 135/5/3 136/114/3
f 135/5/4 133/5/4 136/115/4
f 133/5/4 135/5/4 134/116/4
f 133/5/5 130/5/5 136/117/5
f 130/5/5 133/5/5 129/118/5
f 131/2/6 135/3/6 132/11/6
f 135/3/6 131/2/6 134/1/6
f 127/3/1 137/2/1 128/1/1
f 137/3/1 127/2/1 138/1/1
f 139/3/2 127/2/2 128/1/2
f 127/3/2 139/2/2 140/1/2
f 141/5/3 137/5/3 138/119/3
f 137/5/3 141/5/3 142/120/3
f 141/5/4 139/5/4 142/121/4
f 139/5/4 141/5/4 140/122/4
f 139/5/5 137/5/5 142/123/5
f 137/5/5 139/5/5 128/111/5
f 127/2/6 141/3/6 138/11/6
f 141/3/6 127/2/6 140/1/6
f 145/3/1 144/2/1 143/1/1
f 144/3/1 145/2/1 146/1/1
f 130/3/2 145/2/2 143/1/2
f 145/3/2 130/2/2 132/1/2
f 147/5/3 144/5/3 146/124/3
f 144/5/3 147/5/3 148/125/3
f 147/5/4 130/5/4 148/126/4
f 130/5/4 147/5/4 132/127/4
f 130/5/5 144/5/5 148/128/5
f 144/5/5 130/5/5 143/129/5
f 145/2/6 147/3/6 146/11/6
f 147/3/6 145/2/6 132/1/6
f 151/3/1 150/2/1 149/1/1
f 150/3/1 151/2/1 152/1/1
f 153/3/2 151/2/2 149/1/2
f 151/3/2 153/2/2 154/1/2
f 155/5/3 150/5/3 152/130/3
f 150/5/3 155/5/3 156/131/3
f 155/5/4 153/5/4 156/132/4
f 153/5/4 155/5/4 154/133/4
f 153/5/5 150/5/5 156/134/5
f 150/5/5 153/5/5 149/135/5
f 151/2/6 155/3/6 152/11/6
f 155/3/6 151/2/6 154/1/6
f 159/3/1 158/2/1 157/1/1
f 158/3/1 159/2/1 160/1/1
f 161/3/2 159/2/2 157/1/2
f 159/3/2 161/2/2 162/1/2
f 163/5/3 158/5/3 160/136/3
f 158/5/3 163/5/3 164/137/3
f 163/5/4 161/5/4 164/138/4
f 161/5/4 163/5/4 162/139/4
f 161/5/5 158/5/5 164/140/5
f 158/5/5 161/5/5 157/141/5
f 159/2/6 163/3/6 160/11/6
f 163/3/6 159/2/6 162/1/6
f 167/3/1 166/2/1 165/1/1
f 166/3/1 167/2/1 168/1/1
f 169/3/2 167/2/2 165/1/2
f 167/3/2 169/2/2 170/1/2
f 171/5/3 166/5/3 168/142/3
f 166/5/3 171/5/3 172/143/3
f 171/5/4 169/5/4 172/144/4
f 169/5/4 171/5/4 170/145/4
f 169/5/5 166/5/5 172/146/5
f 166/5/5 169/5/5 165/147/5
f 167/2/6 171/3/6 168/11/6
f 171/3/6 167/2/6 170/1/6
f 170/2/6 173/3/6 171/11/6
f 173/3/6 170/2/6 174/1/6
f 174/3/1 176/2/1 175/1/1
f 176/3/1 174/2/1 173/1/1
f 177/3/2 174/2/2 175/1/2
f 174/3/2 177/2/2 178/1/2
f 179/5/3 176/5/3 173/148/3
f 176/5/3 179/5/3 180/149/3
f 179/5/4 177/5/4 180/150/4
f 177/5/4 179/5/4 178/151/4
f 177/5/5 176/5/5 180/152/5
f 176/5/5 177/5/5 175/153/5
f 174/2/6 179/3/6 173/11/6
f 179/3/6 174/2/6 178/1/6
f 168/2/6 182/3/6 181/11/6
f 182/3/6 168/2/6 171/1/6
f 171/2/6 184/3/6 183/11/6
f 184/3/6 171/2/6 173/1/6
f 173/2/6 186/3/6 185/11/6
f 186/3/6 173/2/6 179/1/6
f 181/2/6 188/3/6 187/11/6
f 188/3/6 181/2/6 182/1/6
f 185/2/6 190/3/6 189/11/6
f 190/3/6 185/2/6 186/1/6

usemtl color4

f 52/3/1 65/2/1 50/1/1
f 65/3/1 52/2/1 66/1/1
f 54/3/2 52/2/2 50/1/2
f 52/3/2 54/2/2 53/1/2
f 191/5/3 65/5/3 66/154/3
f 65/5/3 191/5/3 192/155/3
f 191/5/4 54/51/4 192/156/4
f 54/51/4 191/5/4 53/5/4
f 54/53/5 65/5/5 192/157/5
f 65/5/5 54/53/5 50/5/5
f 52/2/6 191/3/6 66/11/6
f 191/3/6 52/2/6 53/1/6
f 56/3/1 193/2/1 55/1/1
f 193/3/1 56/2/1 194/1/1
f 60/3/2 56/2/2 55/1/2
f 56/3/2 60/2/2 59/1/2
f 71/5/3 193/5/3 194/158/3
f 193/5/3 71/5/3 69/159/3
f 71/5/4 60/57/4 69/160/4
f 60/57/4 71/5/4 59/5/4
f 60/59/5 193/5/5 69/71/5
f 193/5/5 60/59/5 55/5/5
f 56/2/6 71/3/6 194/11/6
f 71/3/6 56/2/6 59/1/6
f 64/3/1 81/2/1 62/1/1
f 81/3/1 64/2/1 82/1/1
f 68/3/2 64/2/2 62/1/2
f 64/3/2 68/2/2 67/1/2
f 195/5/3 81/5/3 82/161/3
f 81/5/3 195/5/3 196/162/3
f 195/5/4 68/62/4 196/163/4
f 68/62/4 195/5/4 67/5/4
f 68/64/5 81/5/5 196/164/5
f 81/5/5 68/64/5 62/5/5
f 64/2/6 195/3/6 82/11/6
f 195/3/6 64/2/6 67/1/6
f 72/3/1 197/2/1 70/1/1
f 197/3/1 72/2/1 198/1/1
f 76/3/2 72/2/2 70/1/2
f 72/3/2 76/2/2 75/1/2
f 87/5/3 197/5/3 198/165/3
f 197/5/3 87/5/3 85/166/3
f 87/5/4 76/68/4 85/167/4
f 76/68/4 87/5/4 75/5/4
f 76/70/5 197/5/5 85/83/5
f 197/5/5 76/70/5 70/5/5
f 72/2/6 87/3/6 198/11/6
f 87/3/6 72/2/6 75/1/6
f 80/3/1 199/2/1 78/1/1
f 199/3/1 80/2/1 200/1/1
f 84/3/2 80/2/2 78/1/2
f 80/3/2 84/2/2 83/1/2
f 95/5/3 199/5/3 200/168/3
f 199/5/3 95/5/3 93/169/3
f 95/5/4 84/74/4 93/170/4
f 84/74/4 95/5/4 83/5/4
f 84/76/5 199/5/5 93/89/5
f 199/5/5 84/76/5 78/5/5
f 80/2/6 95/3/6 200/11/6
f 95/3/6 80/2/6 83/1/6
f 88/3/1 105/2/1 86/1/1
f 105/3/1 88/2/1 106/1/1
f 92/3/2 88/2/2 86/1/2
f 88/3/2 92/2/2 91/1/2
f 201/5/3 105/5/3 106/171/3
f 105/5/3 201/5/3 202/172/3
f 201/5/4 92/80/4 202/173/4
f 92/80/4 201/5/4 91/5/4
f 92/82/5 105/5/5 202/174/5
f 105/5/5 92/82/5 86/5/5
f 88/2/6 201/3/6 106/11/6
f 201/3/6 88/2/6 91/1/6
f 113/3/1 203/2/1 114/1/1
f 203/3/1 113/2/1 204/1/1
f 205/3/2 113/2/2 114/1/2
f 113/3/2 205/2/2 206/1/2
f 207/5/3 203/5/3 204/175/3
f 203/5/3 207/5/3 208/176/3
f 207/5/4 205/5/4 208/177/4
f 205/5/4 207/5/4 206/178/4
f 205/5/5 203/5/5 208/179/5
f 203/5/5 205/5/5 114/100/5
f 113/2/6 207/3/6 204/11/6
f 207/3/6 113/2/6 206/1/6
f 211/3/1 210/2/1 209/1/1
f 210/3/1 211/2/1 212/1/1
f 116/3/2 211/2/2 209/1/2
f 211/3/2 116/2/2 118/1/2
f 213/5/3 210/5/3 212/180/3
f 210/5/3 213/5/3 214/181/3
f 213/5/4 116/5/4 214/182/4
f 116/5/4 213/5/4 118/183/4
f 116/5/5 210/5/5 214/184/5
f 210/5/5 116/5/5 209/185/5
f 211/2/6 213/3/6 212/11/6
f 213/3/6 211/2/6 118/1/6
f 207/3/1 215/2/1 208/1/1
f 215/3/1 207/2/1 216/1/1
f 217/3/2 207/2/2 208/1/2
f 207/3/2 217/2/2 218/1/2
f 123/5/3 215/5/3 216/186/3
f 215/5/3 123/5/3 121/187/3
f 123/5/4 217/5/4 121/188/4
f 217/5/4 123/5/4 218/189/4
f 217/5/5 215/5/5 121/112/5
f 215/5/5 217/5/5 208/179/5
f 207/2/6 123/3/6 216/11/6
f 123/3/6 207/2/6 218/1/6
f 220/3/1 133/2/1 219/1/1
f 133/3/1 220/2/1 134/1/1
f 210/3/2 220/2/2 219/1/2
f 220/3/2 210/2/2 212/1/2
f 221/5/3 133/5/3 134/190/3
f 133/5/3 221/5/3 222/191/3
f 221/5/4 210/5/4 222/192/4
f 210/5/4 221/5/4 212/193/4
f 210/5/5 133/5/5 222/194/5
f 133/5/5 210/5/5 219/195/5
f 220/2/6 221/3/6 134/11/6
f 221/3/6 220/2/6 212/1/6
f 141/3/1 223/2/1 142/1/1
f 223/3/1 141/2/1 224/1/1
f 225/3/2 141/2/2 142/1/2
f 141/3/2 225/2/2 226/1/2
f 227/5/3 223/5/3 224/196/3
f 223/5/3 227/5/3 228/197/3
f 227/5/4 225/5/4 228/198/4
f 225/5/4 227/5/4 226/199/4
f 225/5/5 223/5/5 228/200/5
f 223/5/5 225/5/5 142/123/5
f 141/2/6 227/3/6 224/11/6
f 227/3/6 141/2/6 226/1/6
f 231/3/1 230/2/1 229/1/1
f 230/3/1 231/2/1 232/1/1
f 144/3/2 231/2/2 229/1/2
f 231/3/2 144/2/2 146/1/2
f 233/5/3 230/5/3 232/201/3
f 230/5/3 233/5/3 234/202/3
f 233/5/4 144/5/4 234/203/4
f 144/5/4 233/5/4 146/204/4
f 144/5/5 230/5/5 234/205/5
f 230/5/5 144/5/5 229/206/5
f 231/2/6 233/3/6 232/11/6
f 233/3/6 231/2/6 146/1/6
f 227/3/1 235/2/1 228/1/1
f 235/3/1 227/2/1 236/1/1
f 149/3/2 227/2/2 228/1/2
f 227/3/2 149/2/2 151/1/2
f 152/130/3 235/5/3 236/207/3
f 235/5/3 152/130/3 150/5/3
f 152/5/4 149/5/4 150/208/4
f 149/5/4 152/5/4 151/209/4
f 149/135/5 235/5/5 150/5/5
f 235/5/5 149/135/5 228/200/5
f 227/2/6 152/3/6 236/11/6
f 152/3/6 227/2/6 151/1/6
f 162/3/1 164/2/1 161/1/1
f 164/3/1 162/2/1 163/1/1
f 230/3/2 162/2/2 161/1/2
f 162/3/2 230/2/2 232/1/2
f 237/5/3 164/137/3 163/5/3
f 164/137/3 237/5/3 238/210/3
f 237/5/4 230/5/4 238/211/4
f 230/5/4 237/5/4 232/212/4
f 230/5/5 164/140/5 238/213/5
f 164/140/5 230/5/5 161/5/5
f 162/2/6 237/3/6 163/11/6
f 237/3/6 162/2/6 232/1/6
f 155/3/1 239/2/1 156/1/1
f 239/3/1 155/2/1 240/1/1
f 158/3/2 155/2/2 156/1/2
f 155/3/2 158/2/2 160/1/2
f 241/5/3 239/5/3 240/214/3
f 239/5/3 241/5/3 242/215/3
f 241/5/4 158/5/4 242/216/4
f 158/5/4 241/5/4 160/217/4
f 158/5/5 239/5/5 242/218/5
f 239/5/5 158/5/5 156/134/5
f 155/2/6 241/3/6 240/11/6
f 241/3/6 155/2/6 160/1/6
f 187/2/6 183/3/6 243/11/6
f 183/3/6 187/2/6 188/1/6
f 189/2/6 244/3/6 184/11/6
f 244/3/6 189/2/6 190/1/6
f 243/2/6 246/3/6 245/11/6
f 246/3/6 243/2/6 183/1/6
f 183/2/6 247/3/6 246/11/6
f 247/3/6 183/2/6 184/1/6
f 184/2/6 248/3/6 247/11/6
f 248/3/6 184/2/6 244/1/6
f 245/3/1 250/2/1 249/1/1
f 250/3/1 245/2/1 251/1/1
f 252/3/2 245/2/2 249/1/2
f 245/3/2 252/2/2 246/1/2
f 253/5/3 250/5/3 251/219/3
f 250/5/3 253/5/3 254/220/3
f 253/5/4 252/5/4 254/221/4
f 252/5/4 253/5/4 246/222/4
f 252/5/5 250/5/5 254/223/5
f 250/5/5 252/5/5 249/224/5
f 245/2/6 253/3/6 251/11/6
f 253/3/6 245/2/6 246/1/6
f 246/2/6 255/3/6 253/11/6
f 255/3/6 246/2/6 247/1/6
f 247/3/1 257/2/1 256/1/1
f 257/3/1 247/2/1 255/1/1
f 258/3/2 247/2/2 256/1/2
f 247/3/2 258/2/2 248/1/2
f 259/5/3 257/5/3 255/225/3
f 257/5/3 259/5/3 260/226/3
f 259/5/4 258/5/4 260/227/4
f 258/5/4 259/5/4 248/228/4
f 258/5/5 257/5/5 260/229/5
f 257/5/5 258/5/5 256/230/5
f 247/2/6 259/3/6 255/11/6
f 259/3/6 247/2/6 248/1/6

usemtl color8

f 170/3/1 172/2/1 169/1/1
f 172/3/1 170/2/1 171/1/1
f 175/3/2 170/2/2 169/1/2
f 170/3/2 175/2/2 174/1/2
f 173/148/3 172/143/3 171/5/3
f 172/143/3 173/148/3 176/5/3
f 173/5/4 175/5/4 176/231/4
f 175/5/4 173/5/4 174/232/4
f 175/153/5 172/146/5 176/5/5
f 172/146/5 175/153/5 169/5/5
f 168/3/1 261/2/1 166/1/1
f 261/3/1 168/2/1 181/1/1
f 172/3/2 168/2/2 166/1/2
f 168/3/2 172/2/2 171/1/2
f 182/5/3 261/5/3 181/233/3
f 261/5/3 182/5/3 262/234/3
f 182/5/4 172/144/4 262/235/4
f 172/144/4 182/5/4 171/5/4
f 172/146/5 261/5/5 262/236/5
f 261/5/5 172/146/5 166/5/5
f 173/3/1 263/2/1 176/1/1
f 263/3/1 173/2/1 185/1/1
f 180/3/2 173/2/2 176/1/2
f 173/3/2 180/2/2 179/1/2
f 186/5/3 263/5/3 185/237/3
f 263/5/3 186/5/3 264/238/3
f 186/5/4 180/150/4 264/239/4
f 180/150/4 186/5/4 179/5/4
f 180/152/5 263/5/5 264/240/5
f 263/5/5 180/152/5 176/5/5
f 243/3/1 249/2/1 265/1/1
f 249/3/1 243/2/1 245/1/1
f 266/3/2 243/2/2 265/1/2
f 243/3/2 266/2/2 183/1/2
f 246/5/3 249/5/3 245/241/3
f 249/5/3 246/5/3 252/242/3
f 246/222/4 266/5/4 252/5/4
f 266/5/4 246/222/4 183/243/4
f 266/5/5 249/224/5 252/5/5
f 249/224/5 266/5/5 265/244/5
f 184/3/1 256/2/1 267/1/1
f 256/3/1 184/2/1 247/1/1
f 268/3/2 184/2/2 267/1/2
f 184/3/2 268/2/2 244/1/2
f 248/5/3 256/5/3 247/245/3
f 256/5/3 248/5/3 258/246/3
f 248/228/4 268/5/4 258/5/4
f 268/5/4 248/228/4 244/247/4
f 268/5/5 256/230/5 258/5/5
f 256/230/5 268/5/5 267/248/5
f 246/3/1 254/2/1 252/1/1
f 254/3/1 246/2/1 253/1/1
f 256/3/2 246/2/2 252/1/2
f 246/3/2 256/2/2 247/1/2
f 255/225/3 254/220/3 253/5/3
f 254/220/3 255/225/3 257/5/3
f 255/5/4 256/5/4 257/249/4
f 256/5/4 255/5/4 247/250/4
f 256/230/5 254/223/5 257/5/5
f 254/223/5 256/230/5 252/5/5

usemtl color9

f 171/3/1 266/2/1 172/1/1
f 266/3/1 171/2/1 183/1/1
f 176/3/2 171/2/2 172/1/2
f 171/3/2 176/2/2 173/1/2
f 184/5/3 266/5/3 183/251/3
f 266/5/3 184/5/3 267/252/3
f 184/5/4 176/231/4 267/253/4
f 176/231/4 184/5/4 173/5/4
f 176/5/5 266/5/5 267/248/5
f 266/5/5 176/5/5 172/146/5
f 181/3/1 269/2/1 261/1/1
f 269/3/1 181/2/1 187/1/1
f 262/3/2 181/2/2 261/1/2
f 181/3/2 262/2/2 182/1/2
f 188/5/3 269/5/3 187/254/3
f 269/5/3 188/5/3 270/255/3
f 188/5/4 262/235/4 270/256/4
f 262/235/4 188/5/4 182/5/4
f 262/236/5 269/5/5 270/257/5
f 269/5/5 262/236/5 261/5/5
f 185/3/1 271/2/1 263/1/1
f 271/3/1 185/2/1 189/1/1
f 264/3/2 185/2/2 263/1/2
f 185/3/2 264/2/2 186/1/2
f 190/5/3 271/5/3 189/258/3
f 271/5/3 190/5/3 272/259/3
f 190/5/4 264/239/4 272/260/4
f 264/239/4 190/5/4 186/5/4
f 264/240/5 271/5/5 272/261/5
f 271/5/5 264/240/5 263/5/5
f 187/3/1 265/2/1 269/1/1
f 265/3/1 187/2/1 243/1/1
f 270/3/2 187/2/2 269/1/2
f 187/3/2 270/2/2 188/1/2
f 183/251/3 265/5/3 243/262/3
f 265/5/3 183/251/3 266/5/3
f 183/243/4 270/256/4 266/5/4
f 270/256/4 183/243/4 188/5/4
f 270/257/5 265/244/5 266/5/5
f 265/244/5 270/257/5 269/5/5
f 189/3/1 267/2/1 271/1/1
f 267/3/1 189/2/1 184/1/1
f 272/3/2 189/2/2 271/1/2
f 189/3/2 272/2/2 190/1/2
f 244/5/3 267/252/3 184/5/3
f 267/252/3 244/5/3 268/263/3
f 244/247/4 272/260/4 268/5/4
f 272/260/4 244/247/4 190/5/4
f 272/261/5 267/248/5 268/5/5
f 267/248/5 272/261/5 271/5/5
f 183/3/1 252/2/1 266/1/1
f 252/3/1 183/2/1 246/1/1
f 267/3/2 183/2/2 266/1/2
f 183/3/2 267/2/2 184/1/2
f 247/245/3 252/242/3 246/5/3
f 252/242/3 247/245/3 256/5/3
f 247/250/4 267/253/4 256/5/4
f 267/253/4 247/250/4 184/5/4
f 267/248/5 252/5/5 256/230/5
f 252/5/5 267/248/5 266/5/5

